G04 #@! TF.FileFunction,Copper,L1,Top,Signal*
%FSLAX46Y46*%
G04 Gerber Fmt 4.6, Leading zero omitted, Abs format (unit mm)*
G04 Created by KiCad (PCBNEW 4.0.7) date 09/26/18 21:26:21*
%MOMM*%
%LPD*%
G01*
G04 APERTURE LIST*
%ADD10C,0.100000*%
%ADD11R,3.000000X3.000000*%
%ADD12C,3.000000*%
%ADD13R,1.600000X1.600000*%
%ADD14O,1.600000X1.600000*%
%ADD15R,1.800000X1.800000*%
%ADD16C,1.800000*%
%ADD17O,4.000000X2.500000*%
%ADD18C,2.500000*%
%ADD19C,1.600000*%
%ADD20C,1.520000*%
%ADD21R,1.520000X1.520000*%
%ADD22C,0.250000*%
%ADD23C,1.000000*%
G04 APERTURE END LIST*
D10*
D11*
X123190000Y-86360000D03*
D12*
X123190000Y-81280000D03*
D13*
X84455000Y-93345000D03*
D14*
X94615000Y-93345000D03*
D15*
X125222000Y-102362000D03*
D16*
X122682000Y-102362000D03*
D15*
X125222000Y-94234000D03*
D16*
X122682000Y-94234000D03*
D17*
X73250000Y-83820000D03*
X95250000Y-83820000D03*
D11*
X66675000Y-81280000D03*
D12*
X66675000Y-86360000D03*
D11*
X66675000Y-69850000D03*
D12*
X66675000Y-74930000D03*
D11*
X123190000Y-74930000D03*
D12*
X123190000Y-69850000D03*
D18*
X101645000Y-92410000D03*
D12*
X113845000Y-92410000D03*
X113895000Y-80360000D03*
D18*
X101645000Y-80410000D03*
D12*
X99695000Y-86360000D03*
D19*
X69215000Y-104140000D03*
D14*
X79375000Y-104140000D03*
D19*
X94615000Y-98425000D03*
D14*
X84455000Y-98425000D03*
D19*
X69215000Y-98425000D03*
D14*
X79375000Y-98425000D03*
D19*
X109220000Y-104140000D03*
D14*
X119380000Y-104140000D03*
D19*
X109220000Y-100330000D03*
D14*
X119380000Y-100330000D03*
D13*
X84455000Y-104140000D03*
D14*
X94615000Y-104140000D03*
D20*
X102870000Y-102870000D03*
X100330000Y-102870000D03*
D21*
X105410000Y-102870000D03*
D20*
X102870000Y-97790000D03*
X105410000Y-97790000D03*
D21*
X100330000Y-97790000D03*
D22*
X84455000Y-104140000D02*
X79375000Y-104140000D01*
X94615000Y-104140000D02*
X98425000Y-104140000D01*
X102870000Y-104140000D02*
X102870000Y-102870000D01*
X102235000Y-104775000D02*
X102870000Y-104140000D01*
X99060000Y-104775000D02*
X102235000Y-104775000D01*
X98425000Y-104140000D02*
X99060000Y-104775000D01*
X94615000Y-98425000D02*
X94615000Y-100330000D01*
X94615000Y-100330000D02*
X94615000Y-104140000D01*
X84455000Y-93345000D02*
X84455000Y-85090000D01*
X85725000Y-83820000D02*
X95250000Y-83820000D01*
X84455000Y-85090000D02*
X85725000Y-83820000D01*
X69215000Y-98425000D02*
X69215000Y-94615000D01*
X70485000Y-93345000D02*
X84455000Y-93345000D01*
X69215000Y-94615000D02*
X70485000Y-93345000D01*
X69215000Y-104140000D02*
X69215000Y-98425000D01*
X99695000Y-86360000D02*
X100330000Y-86360000D01*
D23*
X100330000Y-86360000D02*
X101645000Y-85045000D01*
X101645000Y-85045000D02*
X101645000Y-80410000D01*
X95250000Y-83820000D02*
X95250000Y-82550000D01*
X95250000Y-82550000D02*
X97390000Y-80410000D01*
X97390000Y-80410000D02*
X101645000Y-80410000D01*
D22*
X104140000Y-93980000D02*
X105410000Y-95250000D01*
X102570000Y-92410000D02*
X104140000Y-93980000D01*
X105410000Y-95250000D02*
X105410000Y-97790000D01*
X94615000Y-93345000D02*
X99060000Y-93345000D01*
X99995000Y-92410000D02*
X101645000Y-92410000D01*
X99060000Y-93345000D02*
X99995000Y-92410000D01*
X102570000Y-92410000D02*
X101645000Y-92410000D01*
X119380000Y-104140000D02*
X120904000Y-104140000D01*
X120904000Y-104140000D02*
X122682000Y-102362000D01*
X119380000Y-100330000D02*
X119380000Y-97536000D01*
X119380000Y-97536000D02*
X122682000Y-94234000D01*
X102870000Y-97790000D02*
X102870000Y-100330000D01*
X102870000Y-100330000D02*
X100330000Y-102870000D01*
X80645000Y-95885000D02*
X102235000Y-95885000D01*
X79375000Y-97155000D02*
X80645000Y-95885000D01*
X79375000Y-98425000D02*
X79375000Y-97155000D01*
X102870000Y-96520000D02*
X102870000Y-97790000D01*
X102235000Y-95885000D02*
X102870000Y-96520000D01*
D23*
X66675000Y-81280000D02*
X71755000Y-81280000D01*
X71755000Y-81280000D02*
X73250000Y-82775000D01*
D22*
X73250000Y-82775000D02*
X73250000Y-83820000D01*
D23*
X113845000Y-92410000D02*
X113845000Y-90625000D01*
X113845000Y-90625000D02*
X123190000Y-81280000D01*
D22*
X113845000Y-92410000D02*
X113845000Y-99515000D01*
X113845000Y-99515000D02*
X109220000Y-104140000D01*
D23*
X66675000Y-69850000D02*
X123190000Y-69850000D01*
X66675000Y-74930000D02*
X123190000Y-74930000D01*
D22*
X109220000Y-100330000D02*
X109220000Y-90805000D01*
X113895000Y-86130000D02*
X113895000Y-80360000D01*
X109220000Y-90805000D02*
X113895000Y-86130000D01*
M02*
