M48
;DRILL file {KiCad 4.0.7} date 01/25/20 17:52:33
;FORMAT={2:4/ absolute / inch / suppress leading zeros}
FMAT,2
INCH,TZ
T1C0.016
T2C0.030
T3C0.031
T4C0.035
T5C0.039
T6C0.051
T7C0.059
T8C0.079
T9C0.030
T10C0.098
%
G90
G05
M72
T1
X36250Y-37000
X37000Y-35500
X39000Y-39750
X39500Y-39250
X40250Y-40000
X40500Y-35750
X40500Y-39250
X42000Y-35750
T3
X38250Y-33000
X38250Y-34750
X38500Y-36500
X38500Y-40500
X39250Y-33000
X39250Y-34750
X40000Y-36500
X40000Y-40500
X40250Y-33000
X40250Y-34750
X42500Y-36750
X42500Y-38500
X42500Y-39750
X42500Y-41000
X46500Y-36750
X46500Y-38500
X46500Y-39750
X46500Y-41000
T4
X48500Y-35750
X48500Y-36750
X48500Y-39000
X48500Y-40000
T5
X31482Y-35868
X31482Y-40593
X39500Y-27758
X39500Y-30750
X42500Y-34750
X46500Y-34750
T6
X26659Y-40612
X26679Y-35868
X32250Y-38250
T7
X35500Y-31839
X35500Y-40500
T8
X32000Y-29500
X32000Y-31500
X43250Y-28500
X43250Y-30000
X43250Y-31500
X43250Y-33000
T2
X29606Y-27547G85X29394Y-27547
G05
X29606Y-30500G85X29394Y-30500
G05
X29606Y-33453G85X29394Y-33453
G05
X30590Y-28531G85X30378Y-28531
G05
X30590Y-32469G85X30378Y-32469
G05
X31574Y-27547G85X31363Y-27547
G05
X31574Y-33453G85X31363Y-33453
G05
T9
X25563Y-28445G85X25563Y-28618
G05
X25563Y-32382G85X25563Y-32555
G05
T10
X45455Y-29250G85X46045Y-29250
G05
X45455Y-32250G85X46045Y-32250
G05
X47955Y-29250G85X48545Y-29250
G05
X47955Y-32250G85X48545Y-32250
G05
T0
M30
