M48
;DRILL file {KiCad 4.0.7} date 09/26/18 21:26:24
;FORMAT={2:4/ absolute / inch / suppress leading zeros}
FMAT,2
INCH,TZ
T1C0.031
T2C0.035
T3C0.039
T4C0.051
T5C0.059
T6C0.060
%
G90
G05
M72
T1
X27250Y-38750
X27250Y-41000
X31250Y-38750
X31250Y-41000
X33250Y-36750
X33250Y-38750
X33250Y-41000
X37250Y-36750
X37250Y-38750
X37250Y-41000
X39500Y-38500
X39500Y-40500
X40500Y-38500
X40500Y-40500
X41500Y-38500
X41500Y-40500
X43000Y-39500
X43000Y-41000
X47000Y-39500
X47000Y-41000
T2
X48300Y-37100
X48300Y-40300
X49300Y-37100
X49300Y-40300
T3
X40018Y-31657
X40018Y-36382
T4
X39250Y-34000
X44821Y-36382
X44841Y-31638
T5
X28839Y-33000
X37500Y-33000
T6
X26250Y-27500
X26250Y-29500
X26250Y-32000
X26250Y-34000
X48500Y-27500
X48500Y-29500
X48500Y-32000
X48500Y-34000
T0
M30
