G04 #@! TF.FileFunction,Legend,Top*
%FSLAX46Y46*%
G04 Gerber Fmt 4.6, Leading zero omitted, Abs format (unit mm)*
G04 Created by KiCad (PCBNEW 4.0.7) date 09/26/18 21:26:21*
%MOMM*%
%LPD*%
G01*
G04 APERTURE LIST*
%ADD10C,0.100000*%
%ADD11C,0.300000*%
%ADD12C,0.120000*%
%ADD13C,0.150000*%
G04 APERTURE END LIST*
D10*
D11*
X86115002Y-69740714D02*
X86043573Y-69812143D01*
X85829287Y-69883571D01*
X85686430Y-69883571D01*
X85472145Y-69812143D01*
X85329287Y-69669286D01*
X85257859Y-69526429D01*
X85186430Y-69240714D01*
X85186430Y-69026429D01*
X85257859Y-68740714D01*
X85329287Y-68597857D01*
X85472145Y-68455000D01*
X85686430Y-68383571D01*
X85829287Y-68383571D01*
X86043573Y-68455000D01*
X86115002Y-68526429D01*
X87400716Y-68383571D02*
X87115002Y-68383571D01*
X86972145Y-68455000D01*
X86900716Y-68526429D01*
X86757859Y-68740714D01*
X86686430Y-69026429D01*
X86686430Y-69597857D01*
X86757859Y-69740714D01*
X86829287Y-69812143D01*
X86972145Y-69883571D01*
X87257859Y-69883571D01*
X87400716Y-69812143D01*
X87472145Y-69740714D01*
X87543573Y-69597857D01*
X87543573Y-69240714D01*
X87472145Y-69097857D01*
X87400716Y-69026429D01*
X87257859Y-68955000D01*
X86972145Y-68955000D01*
X86829287Y-69026429D01*
X86757859Y-69097857D01*
X86686430Y-69240714D01*
X88829287Y-68883571D02*
X88829287Y-69883571D01*
X88472144Y-68312143D02*
X88115001Y-69383571D01*
X89043573Y-69383571D01*
X90757858Y-69883571D02*
X90757858Y-68383571D01*
X91329286Y-68383571D01*
X91472144Y-68455000D01*
X91543572Y-68526429D01*
X91615001Y-68669286D01*
X91615001Y-68883571D01*
X91543572Y-69026429D01*
X91472144Y-69097857D01*
X91329286Y-69169286D01*
X90757858Y-69169286D01*
X92472144Y-69883571D02*
X92329286Y-69812143D01*
X92257858Y-69740714D01*
X92186429Y-69597857D01*
X92186429Y-69169286D01*
X92257858Y-69026429D01*
X92329286Y-68955000D01*
X92472144Y-68883571D01*
X92686429Y-68883571D01*
X92829286Y-68955000D01*
X92900715Y-69026429D01*
X92972144Y-69169286D01*
X92972144Y-69597857D01*
X92900715Y-69740714D01*
X92829286Y-69812143D01*
X92686429Y-69883571D01*
X92472144Y-69883571D01*
X93472144Y-68883571D02*
X93757858Y-69883571D01*
X94043572Y-69169286D01*
X94329287Y-69883571D01*
X94615001Y-68883571D01*
X95757858Y-69812143D02*
X95615001Y-69883571D01*
X95329287Y-69883571D01*
X95186430Y-69812143D01*
X95115001Y-69669286D01*
X95115001Y-69097857D01*
X95186430Y-68955000D01*
X95329287Y-68883571D01*
X95615001Y-68883571D01*
X95757858Y-68955000D01*
X95829287Y-69097857D01*
X95829287Y-69240714D01*
X95115001Y-69383571D01*
X96472144Y-69883571D02*
X96472144Y-68883571D01*
X96472144Y-69169286D02*
X96543572Y-69026429D01*
X96615001Y-68955000D01*
X96757858Y-68883571D01*
X96900715Y-68883571D01*
X98472143Y-69812143D02*
X98686429Y-69883571D01*
X99043572Y-69883571D01*
X99186429Y-69812143D01*
X99257858Y-69740714D01*
X99329286Y-69597857D01*
X99329286Y-69455000D01*
X99257858Y-69312143D01*
X99186429Y-69240714D01*
X99043572Y-69169286D01*
X98757858Y-69097857D01*
X98615000Y-69026429D01*
X98543572Y-68955000D01*
X98472143Y-68812143D01*
X98472143Y-68669286D01*
X98543572Y-68526429D01*
X98615000Y-68455000D01*
X98757858Y-68383571D01*
X99115000Y-68383571D01*
X99329286Y-68455000D01*
X100615000Y-69883571D02*
X100615000Y-69097857D01*
X100543571Y-68955000D01*
X100400714Y-68883571D01*
X100115000Y-68883571D01*
X99972143Y-68955000D01*
X100615000Y-69812143D02*
X100472143Y-69883571D01*
X100115000Y-69883571D01*
X99972143Y-69812143D01*
X99900714Y-69669286D01*
X99900714Y-69526429D01*
X99972143Y-69383571D01*
X100115000Y-69312143D01*
X100472143Y-69312143D01*
X100615000Y-69240714D01*
X101186429Y-68883571D02*
X101543572Y-69883571D01*
X101900714Y-68883571D01*
X103043571Y-69812143D02*
X102900714Y-69883571D01*
X102615000Y-69883571D01*
X102472143Y-69812143D01*
X102400714Y-69669286D01*
X102400714Y-69097857D01*
X102472143Y-68955000D01*
X102615000Y-68883571D01*
X102900714Y-68883571D01*
X103043571Y-68955000D01*
X103115000Y-69097857D01*
X103115000Y-69240714D01*
X102400714Y-69383571D01*
X103757857Y-69883571D02*
X103757857Y-68883571D01*
X103757857Y-69169286D02*
X103829285Y-69026429D01*
X103900714Y-68955000D01*
X104043571Y-68883571D01*
X104186428Y-68883571D01*
X89865000Y-72433571D02*
X89365000Y-71719286D01*
X89007857Y-72433571D02*
X89007857Y-70933571D01*
X89579285Y-70933571D01*
X89722143Y-71005000D01*
X89793571Y-71076429D01*
X89865000Y-71219286D01*
X89865000Y-71433571D01*
X89793571Y-71576429D01*
X89722143Y-71647857D01*
X89579285Y-71719286D01*
X89007857Y-71719286D01*
X91079285Y-72362143D02*
X90936428Y-72433571D01*
X90650714Y-72433571D01*
X90507857Y-72362143D01*
X90436428Y-72219286D01*
X90436428Y-71647857D01*
X90507857Y-71505000D01*
X90650714Y-71433571D01*
X90936428Y-71433571D01*
X91079285Y-71505000D01*
X91150714Y-71647857D01*
X91150714Y-71790714D01*
X90436428Y-71933571D01*
X91650714Y-71433571D02*
X92007857Y-72433571D01*
X92364999Y-71433571D01*
X92936428Y-72433571D02*
X92936428Y-71433571D01*
X92936428Y-70933571D02*
X92864999Y-71005000D01*
X92936428Y-71076429D01*
X93007856Y-71005000D01*
X92936428Y-70933571D01*
X92936428Y-71076429D01*
X93579285Y-72362143D02*
X93722142Y-72433571D01*
X94007857Y-72433571D01*
X94150714Y-72362143D01*
X94222142Y-72219286D01*
X94222142Y-72147857D01*
X94150714Y-72005000D01*
X94007857Y-71933571D01*
X93793571Y-71933571D01*
X93650714Y-71862143D01*
X93579285Y-71719286D01*
X93579285Y-71647857D01*
X93650714Y-71505000D01*
X93793571Y-71433571D01*
X94007857Y-71433571D01*
X94150714Y-71505000D01*
X94865000Y-72433571D02*
X94865000Y-71433571D01*
X94865000Y-70933571D02*
X94793571Y-71005000D01*
X94865000Y-71076429D01*
X94936428Y-71005000D01*
X94865000Y-70933571D01*
X94865000Y-71076429D01*
X95793572Y-72433571D02*
X95650714Y-72362143D01*
X95579286Y-72290714D01*
X95507857Y-72147857D01*
X95507857Y-71719286D01*
X95579286Y-71576429D01*
X95650714Y-71505000D01*
X95793572Y-71433571D01*
X96007857Y-71433571D01*
X96150714Y-71505000D01*
X96222143Y-71576429D01*
X96293572Y-71719286D01*
X96293572Y-72147857D01*
X96222143Y-72290714D01*
X96150714Y-72362143D01*
X96007857Y-72433571D01*
X95793572Y-72433571D01*
X96936429Y-71433571D02*
X96936429Y-72433571D01*
X96936429Y-71576429D02*
X97007857Y-71505000D01*
X97150715Y-71433571D01*
X97365000Y-71433571D01*
X97507857Y-71505000D01*
X97579286Y-71647857D01*
X97579286Y-72433571D01*
X99936429Y-71647857D02*
X100150715Y-71719286D01*
X100222143Y-71790714D01*
X100293572Y-71933571D01*
X100293572Y-72147857D01*
X100222143Y-72290714D01*
X100150715Y-72362143D01*
X100007857Y-72433571D01*
X99436429Y-72433571D01*
X99436429Y-70933571D01*
X99936429Y-70933571D01*
X100079286Y-71005000D01*
X100150715Y-71076429D01*
X100222143Y-71219286D01*
X100222143Y-71362143D01*
X100150715Y-71505000D01*
X100079286Y-71576429D01*
X99936429Y-71647857D01*
X99436429Y-71647857D01*
X75829285Y-74983571D02*
X75829285Y-73483571D01*
X76472142Y-74983571D02*
X76472142Y-74197857D01*
X76400713Y-74055000D01*
X76257856Y-73983571D01*
X76043571Y-73983571D01*
X75900713Y-74055000D01*
X75829285Y-74126429D01*
X76972142Y-73983571D02*
X77543571Y-73983571D01*
X77186428Y-73483571D02*
X77186428Y-74769286D01*
X77257856Y-74912143D01*
X77400714Y-74983571D01*
X77543571Y-74983571D01*
X77829285Y-73983571D02*
X78400714Y-73983571D01*
X78043571Y-73483571D02*
X78043571Y-74769286D01*
X78114999Y-74912143D01*
X78257857Y-74983571D01*
X78400714Y-74983571D01*
X78900714Y-73983571D02*
X78900714Y-75483571D01*
X78900714Y-74055000D02*
X79043571Y-73983571D01*
X79329285Y-73983571D01*
X79472142Y-74055000D01*
X79543571Y-74126429D01*
X79615000Y-74269286D01*
X79615000Y-74697857D01*
X79543571Y-74840714D01*
X79472142Y-74912143D01*
X79329285Y-74983571D01*
X79043571Y-74983571D01*
X78900714Y-74912143D01*
X80186428Y-74912143D02*
X80329285Y-74983571D01*
X80615000Y-74983571D01*
X80757857Y-74912143D01*
X80829285Y-74769286D01*
X80829285Y-74697857D01*
X80757857Y-74555000D01*
X80615000Y-74483571D01*
X80400714Y-74483571D01*
X80257857Y-74412143D01*
X80186428Y-74269286D01*
X80186428Y-74197857D01*
X80257857Y-74055000D01*
X80400714Y-73983571D01*
X80615000Y-73983571D01*
X80757857Y-74055000D01*
X81472143Y-74840714D02*
X81543571Y-74912143D01*
X81472143Y-74983571D01*
X81400714Y-74912143D01*
X81472143Y-74840714D01*
X81472143Y-74983571D01*
X81472143Y-74055000D02*
X81543571Y-74126429D01*
X81472143Y-74197857D01*
X81400714Y-74126429D01*
X81472143Y-74055000D01*
X81472143Y-74197857D01*
X83257857Y-73412143D02*
X81972143Y-75340714D01*
X84829286Y-73412143D02*
X83543572Y-75340714D01*
X85329287Y-74983571D02*
X85329287Y-73483571D01*
X85972144Y-74983571D02*
X85972144Y-74197857D01*
X85900715Y-74055000D01*
X85757858Y-73983571D01*
X85543573Y-73983571D01*
X85400715Y-74055000D01*
X85329287Y-74126429D01*
X86543573Y-73983571D02*
X86900716Y-74983571D01*
X87257858Y-73983571D01*
X88400715Y-74912143D02*
X88257858Y-74983571D01*
X87972144Y-74983571D01*
X87829287Y-74912143D01*
X87757858Y-74769286D01*
X87757858Y-74197857D01*
X87829287Y-74055000D01*
X87972144Y-73983571D01*
X88257858Y-73983571D01*
X88400715Y-74055000D01*
X88472144Y-74197857D01*
X88472144Y-74340714D01*
X87757858Y-74483571D01*
X88900715Y-73983571D02*
X89472144Y-73983571D01*
X89115001Y-73483571D02*
X89115001Y-74769286D01*
X89186429Y-74912143D01*
X89329287Y-74983571D01*
X89472144Y-74983571D01*
X90543572Y-74912143D02*
X90400715Y-74983571D01*
X90115001Y-74983571D01*
X89972144Y-74912143D01*
X89900715Y-74769286D01*
X89900715Y-74197857D01*
X89972144Y-74055000D01*
X90115001Y-73983571D01*
X90400715Y-73983571D01*
X90543572Y-74055000D01*
X90615001Y-74197857D01*
X90615001Y-74340714D01*
X89900715Y-74483571D01*
X91257858Y-74983571D02*
X91257858Y-73483571D01*
X91257858Y-74055000D02*
X91400715Y-73983571D01*
X91686429Y-73983571D01*
X91829286Y-74055000D01*
X91900715Y-74126429D01*
X91972144Y-74269286D01*
X91972144Y-74697857D01*
X91900715Y-74840714D01*
X91829286Y-74912143D01*
X91686429Y-74983571D01*
X91400715Y-74983571D01*
X91257858Y-74912143D01*
X92829287Y-74983571D02*
X92686429Y-74912143D01*
X92615001Y-74840714D01*
X92543572Y-74697857D01*
X92543572Y-74269286D01*
X92615001Y-74126429D01*
X92686429Y-74055000D01*
X92829287Y-73983571D01*
X93043572Y-73983571D01*
X93186429Y-74055000D01*
X93257858Y-74126429D01*
X93329287Y-74269286D01*
X93329287Y-74697857D01*
X93257858Y-74840714D01*
X93186429Y-74912143D01*
X93043572Y-74983571D01*
X92829287Y-74983571D01*
X94186430Y-74983571D02*
X94043572Y-74912143D01*
X93972144Y-74769286D01*
X93972144Y-73483571D01*
X94972144Y-74983571D02*
X94829286Y-74912143D01*
X94757858Y-74769286D01*
X94757858Y-73483571D01*
X96115000Y-74912143D02*
X95972143Y-74983571D01*
X95686429Y-74983571D01*
X95543572Y-74912143D01*
X95472143Y-74769286D01*
X95472143Y-74197857D01*
X95543572Y-74055000D01*
X95686429Y-73983571D01*
X95972143Y-73983571D01*
X96115000Y-74055000D01*
X96186429Y-74197857D01*
X96186429Y-74340714D01*
X95472143Y-74483571D01*
X96829286Y-74840714D02*
X96900714Y-74912143D01*
X96829286Y-74983571D01*
X96757857Y-74912143D01*
X96829286Y-74840714D01*
X96829286Y-74983571D01*
X97543572Y-74983571D02*
X97543572Y-73483571D01*
X97543572Y-74055000D02*
X97686429Y-73983571D01*
X97972143Y-73983571D01*
X98115000Y-74055000D01*
X98186429Y-74126429D01*
X98257858Y-74269286D01*
X98257858Y-74697857D01*
X98186429Y-74840714D01*
X98115000Y-74912143D01*
X97972143Y-74983571D01*
X97686429Y-74983571D01*
X97543572Y-74912143D01*
X99115001Y-74983571D02*
X98972143Y-74912143D01*
X98900715Y-74769286D01*
X98900715Y-73483571D01*
X99900715Y-74983571D02*
X99757857Y-74912143D01*
X99686429Y-74840714D01*
X99615000Y-74697857D01*
X99615000Y-74269286D01*
X99686429Y-74126429D01*
X99757857Y-74055000D01*
X99900715Y-73983571D01*
X100115000Y-73983571D01*
X100257857Y-74055000D01*
X100329286Y-74126429D01*
X100400715Y-74269286D01*
X100400715Y-74697857D01*
X100329286Y-74840714D01*
X100257857Y-74912143D01*
X100115000Y-74983571D01*
X99900715Y-74983571D01*
X101686429Y-73983571D02*
X101686429Y-75197857D01*
X101615000Y-75340714D01*
X101543572Y-75412143D01*
X101400715Y-75483571D01*
X101186429Y-75483571D01*
X101043572Y-75412143D01*
X101686429Y-74912143D02*
X101543572Y-74983571D01*
X101257858Y-74983571D01*
X101115000Y-74912143D01*
X101043572Y-74840714D01*
X100972143Y-74697857D01*
X100972143Y-74269286D01*
X101043572Y-74126429D01*
X101115000Y-74055000D01*
X101257858Y-73983571D01*
X101543572Y-73983571D01*
X101686429Y-74055000D01*
X102329286Y-74912143D02*
X102472143Y-74983571D01*
X102757858Y-74983571D01*
X102900715Y-74912143D01*
X102972143Y-74769286D01*
X102972143Y-74697857D01*
X102900715Y-74555000D01*
X102757858Y-74483571D01*
X102543572Y-74483571D01*
X102400715Y-74412143D01*
X102329286Y-74269286D01*
X102329286Y-74197857D01*
X102400715Y-74055000D01*
X102543572Y-73983571D01*
X102757858Y-73983571D01*
X102900715Y-74055000D01*
X103615001Y-73983571D02*
X103615001Y-75483571D01*
X103615001Y-74055000D02*
X103757858Y-73983571D01*
X104043572Y-73983571D01*
X104186429Y-74055000D01*
X104257858Y-74126429D01*
X104329287Y-74269286D01*
X104329287Y-74697857D01*
X104257858Y-74840714D01*
X104186429Y-74912143D01*
X104043572Y-74983571D01*
X103757858Y-74983571D01*
X103615001Y-74912143D01*
X105186430Y-74983571D02*
X105043572Y-74912143D01*
X104972144Y-74840714D01*
X104900715Y-74697857D01*
X104900715Y-74269286D01*
X104972144Y-74126429D01*
X105043572Y-74055000D01*
X105186430Y-73983571D01*
X105400715Y-73983571D01*
X105543572Y-74055000D01*
X105615001Y-74126429D01*
X105686430Y-74269286D01*
X105686430Y-74697857D01*
X105615001Y-74840714D01*
X105543572Y-74912143D01*
X105400715Y-74983571D01*
X105186430Y-74983571D01*
X106115001Y-73983571D02*
X106686430Y-73983571D01*
X106329287Y-73483571D02*
X106329287Y-74769286D01*
X106400715Y-74912143D01*
X106543573Y-74983571D01*
X106686430Y-74983571D01*
X107186430Y-74840714D02*
X107257858Y-74912143D01*
X107186430Y-74983571D01*
X107115001Y-74912143D01*
X107186430Y-74840714D01*
X107186430Y-74983571D01*
X108543573Y-74912143D02*
X108400716Y-74983571D01*
X108115002Y-74983571D01*
X107972144Y-74912143D01*
X107900716Y-74840714D01*
X107829287Y-74697857D01*
X107829287Y-74269286D01*
X107900716Y-74126429D01*
X107972144Y-74055000D01*
X108115002Y-73983571D01*
X108400716Y-73983571D01*
X108543573Y-74055000D01*
X109400716Y-74983571D02*
X109257858Y-74912143D01*
X109186430Y-74840714D01*
X109115001Y-74697857D01*
X109115001Y-74269286D01*
X109186430Y-74126429D01*
X109257858Y-74055000D01*
X109400716Y-73983571D01*
X109615001Y-73983571D01*
X109757858Y-74055000D01*
X109829287Y-74126429D01*
X109900716Y-74269286D01*
X109900716Y-74697857D01*
X109829287Y-74840714D01*
X109757858Y-74912143D01*
X109615001Y-74983571D01*
X109400716Y-74983571D01*
X110543573Y-74983571D02*
X110543573Y-73983571D01*
X110543573Y-74126429D02*
X110615001Y-74055000D01*
X110757859Y-73983571D01*
X110972144Y-73983571D01*
X111115001Y-74055000D01*
X111186430Y-74197857D01*
X111186430Y-74983571D01*
X111186430Y-74197857D02*
X111257859Y-74055000D01*
X111400716Y-73983571D01*
X111615001Y-73983571D01*
X111757859Y-74055000D01*
X111829287Y-74197857D01*
X111829287Y-74983571D01*
X113615001Y-73412143D02*
X112329287Y-75340714D01*
D12*
X125730000Y-78740000D02*
X125730000Y-88900000D01*
X127000000Y-78740000D02*
X119380000Y-78740000D01*
X119380000Y-78740000D02*
X119380000Y-88900000D01*
X119380000Y-88900000D02*
X127000000Y-88900000D01*
X127000000Y-88900000D02*
X127000000Y-78740000D01*
X87475000Y-92285000D02*
X87475000Y-94405000D01*
X87475000Y-94405000D02*
X91595000Y-94405000D01*
X91595000Y-94405000D02*
X91595000Y-92285000D01*
X91595000Y-92285000D02*
X87475000Y-92285000D01*
X85435000Y-93345000D02*
X87475000Y-93345000D01*
X93635000Y-93345000D02*
X91595000Y-93345000D01*
X88135000Y-92285000D02*
X88135000Y-94405000D01*
X120962000Y-102361538D02*
G75*
G03X126512000Y-103906830I2990000J-462D01*
G01*
X120962000Y-102362462D02*
G75*
G02X126512000Y-100817170I2990000J462D01*
G01*
X126452000Y-102362000D02*
G75*
G03X126452000Y-102362000I-2500000J0D01*
G01*
X126512000Y-103907000D02*
X126512000Y-100817000D01*
X120962000Y-94233538D02*
G75*
G03X126512000Y-95778830I2990000J-462D01*
G01*
X120962000Y-94234462D02*
G75*
G02X126512000Y-92689170I2990000J462D01*
G01*
X126452000Y-94234000D02*
G75*
G03X126452000Y-94234000I-2500000J0D01*
G01*
X126512000Y-95779000D02*
X126512000Y-92689000D01*
X90250000Y-86320000D02*
X90250000Y-88820000D01*
X90250000Y-78820000D02*
X90250000Y-81320000D01*
X78250000Y-78820000D02*
X78250000Y-81320000D01*
X78250000Y-88820000D02*
X78250000Y-86320000D01*
X88750000Y-83820000D02*
X79750000Y-83820000D01*
X88750000Y-86320000D02*
X88750000Y-81320000D01*
X79750000Y-86320000D02*
X79750000Y-81320000D01*
X74250000Y-85720000D02*
X74250000Y-86320000D01*
X94250000Y-81920000D02*
X94250000Y-81320000D01*
X94250000Y-81320000D02*
X74250000Y-81320000D01*
X74250000Y-81320000D02*
X74250000Y-81920000D01*
X74250000Y-86320000D02*
X94250000Y-86320000D01*
X94250000Y-86320000D02*
X94250000Y-85720000D01*
X72250000Y-85720000D02*
X72250000Y-88820000D01*
X96250000Y-81920000D02*
X96250000Y-78820000D01*
X96250000Y-78820000D02*
X72250000Y-78820000D01*
X72250000Y-78820000D02*
X72250000Y-81920000D01*
X72250000Y-88820000D02*
X96250000Y-88820000D01*
X96250000Y-88820000D02*
X96250000Y-85720000D01*
X64135000Y-88900000D02*
X64135000Y-78740000D01*
X62865000Y-88900000D02*
X70485000Y-88900000D01*
X70485000Y-88900000D02*
X70485000Y-78740000D01*
X70485000Y-78740000D02*
X62865000Y-78740000D01*
X62865000Y-78740000D02*
X62865000Y-88900000D01*
X64135000Y-77470000D02*
X64135000Y-67310000D01*
X62865000Y-77470000D02*
X70485000Y-77470000D01*
X70485000Y-77470000D02*
X70485000Y-67310000D01*
X70485000Y-67310000D02*
X62865000Y-67310000D01*
X62865000Y-67310000D02*
X62865000Y-77470000D01*
X125730000Y-67310000D02*
X125730000Y-77470000D01*
X127000000Y-67310000D02*
X119380000Y-67310000D01*
X119380000Y-67310000D02*
X119380000Y-77470000D01*
X119380000Y-77470000D02*
X127000000Y-77470000D01*
X127000000Y-77470000D02*
X127000000Y-67310000D01*
X98295000Y-87560000D02*
X98295000Y-94160000D01*
X98295000Y-78560000D02*
X98295000Y-85160000D01*
X98295000Y-78560000D02*
X118095000Y-78560000D01*
X118095000Y-78560000D02*
X118095000Y-94160000D01*
X118095000Y-94160000D02*
X98295000Y-94160000D01*
X113845000Y-90560000D02*
X113845000Y-88110000D01*
X113845000Y-82160000D02*
X113845000Y-84660000D01*
X103245000Y-92410000D02*
X105745000Y-92410000D01*
X102345000Y-86410000D02*
X101545000Y-86410000D01*
X105745000Y-80410000D02*
X103245000Y-80410000D01*
X109145000Y-86410000D02*
X110645000Y-86410000D01*
X110645000Y-86410000D02*
X115245000Y-83910000D01*
X109145000Y-90010000D02*
X102345000Y-90010000D01*
X109145000Y-86410000D02*
X109145000Y-90010000D01*
X102345000Y-86410000D02*
X102345000Y-90010000D01*
X105745000Y-80410000D02*
X105745000Y-84610000D01*
X105745000Y-88210000D02*
X105745000Y-92410000D01*
X107745000Y-88210000D02*
X103745000Y-84610000D01*
X103745000Y-88210000D02*
X103745000Y-84610000D01*
X103745000Y-84610000D02*
X107745000Y-84610000D01*
X107745000Y-84610000D02*
X107745000Y-88210000D01*
X107745000Y-88210000D02*
X103745000Y-88210000D01*
X71085000Y-102830000D02*
X71085000Y-105450000D01*
X71085000Y-105450000D02*
X77505000Y-105450000D01*
X77505000Y-105450000D02*
X77505000Y-102830000D01*
X77505000Y-102830000D02*
X71085000Y-102830000D01*
X70195000Y-104140000D02*
X71085000Y-104140000D01*
X78395000Y-104140000D02*
X77505000Y-104140000D01*
X92745000Y-99735000D02*
X92745000Y-97115000D01*
X92745000Y-97115000D02*
X86325000Y-97115000D01*
X86325000Y-97115000D02*
X86325000Y-99735000D01*
X86325000Y-99735000D02*
X92745000Y-99735000D01*
X93635000Y-98425000D02*
X92745000Y-98425000D01*
X85435000Y-98425000D02*
X86325000Y-98425000D01*
X71085000Y-97115000D02*
X71085000Y-99735000D01*
X71085000Y-99735000D02*
X77505000Y-99735000D01*
X77505000Y-99735000D02*
X77505000Y-97115000D01*
X77505000Y-97115000D02*
X71085000Y-97115000D01*
X70195000Y-98425000D02*
X71085000Y-98425000D01*
X78395000Y-98425000D02*
X77505000Y-98425000D01*
X111090000Y-102830000D02*
X111090000Y-105450000D01*
X111090000Y-105450000D02*
X117510000Y-105450000D01*
X117510000Y-105450000D02*
X117510000Y-102830000D01*
X117510000Y-102830000D02*
X111090000Y-102830000D01*
X110200000Y-104140000D02*
X111090000Y-104140000D01*
X118400000Y-104140000D02*
X117510000Y-104140000D01*
X111090000Y-99020000D02*
X111090000Y-101640000D01*
X111090000Y-101640000D02*
X117510000Y-101640000D01*
X117510000Y-101640000D02*
X117510000Y-99020000D01*
X117510000Y-99020000D02*
X111090000Y-99020000D01*
X110200000Y-100330000D02*
X111090000Y-100330000D01*
X118400000Y-100330000D02*
X117510000Y-100330000D01*
X87475000Y-103080000D02*
X87475000Y-105200000D01*
X87475000Y-105200000D02*
X91595000Y-105200000D01*
X91595000Y-105200000D02*
X91595000Y-103080000D01*
X91595000Y-103080000D02*
X87475000Y-103080000D01*
X85435000Y-104140000D02*
X87475000Y-104140000D01*
X93635000Y-104140000D02*
X91595000Y-104140000D01*
X88135000Y-103080000D02*
X88135000Y-105200000D01*
X104670000Y-101020000D02*
X101070000Y-101020000D01*
X105194184Y-101747205D02*
G75*
G03X104670000Y-101020000I-2324184J-1122795D01*
G01*
X105226400Y-103968807D02*
G75*
G02X102870000Y-105470000I-2356400J1098807D01*
G01*
X100513600Y-103968807D02*
G75*
G03X102870000Y-105470000I2356400J1098807D01*
G01*
X100545816Y-101747205D02*
G75*
G02X101070000Y-101020000I2324184J-1122795D01*
G01*
X101070000Y-99640000D02*
X104670000Y-99640000D01*
X100545816Y-98912795D02*
G75*
G03X101070000Y-99640000I2324184J1122795D01*
G01*
X100513600Y-96691193D02*
G75*
G02X102870000Y-95190000I2356400J-1098807D01*
G01*
X105226400Y-96691193D02*
G75*
G03X102870000Y-95190000I-2356400J-1098807D01*
G01*
X105194184Y-98912795D02*
G75*
G02X104670000Y-99640000I-2324184J1122795D01*
G01*
D13*
X130262381Y-84153333D02*
X130976667Y-84153333D01*
X131119524Y-84200953D01*
X131214762Y-84296191D01*
X131262381Y-84439048D01*
X131262381Y-84534286D01*
X130357619Y-83724762D02*
X130310000Y-83677143D01*
X130262381Y-83581905D01*
X130262381Y-83343809D01*
X130310000Y-83248571D01*
X130357619Y-83200952D01*
X130452857Y-83153333D01*
X130548095Y-83153333D01*
X130690952Y-83200952D01*
X131262381Y-83772381D01*
X131262381Y-83153333D01*
X88796905Y-93797381D02*
X88796905Y-92797381D01*
X89035000Y-92797381D01*
X89177858Y-92845000D01*
X89273096Y-92940238D01*
X89320715Y-93035476D01*
X89368334Y-93225952D01*
X89368334Y-93368810D01*
X89320715Y-93559286D01*
X89273096Y-93654524D01*
X89177858Y-93749762D01*
X89035000Y-93797381D01*
X88796905Y-93797381D01*
X89749286Y-92892619D02*
X89796905Y-92845000D01*
X89892143Y-92797381D01*
X90130239Y-92797381D01*
X90225477Y-92845000D01*
X90273096Y-92892619D01*
X90320715Y-92987857D01*
X90320715Y-93083095D01*
X90273096Y-93225952D01*
X89701667Y-93797381D01*
X90320715Y-93797381D01*
X87392143Y-91892381D02*
X86820714Y-91892381D01*
X87106428Y-91892381D02*
X87106428Y-90892381D01*
X87011190Y-91035238D01*
X86915952Y-91130476D01*
X86820714Y-91178095D01*
X87820714Y-91892381D02*
X87820714Y-90892381D01*
X88392143Y-91892381D01*
X88392143Y-90892381D01*
X89296905Y-91225714D02*
X89296905Y-91892381D01*
X89058809Y-90844762D02*
X88820714Y-91559048D01*
X89439762Y-91559048D01*
X90344524Y-91892381D02*
X89773095Y-91892381D01*
X90058809Y-91892381D02*
X90058809Y-90892381D01*
X89963571Y-91035238D01*
X89868333Y-91130476D01*
X89773095Y-91178095D01*
X91201667Y-91225714D02*
X91201667Y-91892381D01*
X90963571Y-90844762D02*
X90725476Y-91559048D01*
X91344524Y-91559048D01*
X91868333Y-91320952D02*
X91773095Y-91273333D01*
X91725476Y-91225714D01*
X91677857Y-91130476D01*
X91677857Y-91082857D01*
X91725476Y-90987619D01*
X91773095Y-90940000D01*
X91868333Y-90892381D01*
X92058810Y-90892381D01*
X92154048Y-90940000D01*
X92201667Y-90987619D01*
X92249286Y-91082857D01*
X92249286Y-91130476D01*
X92201667Y-91225714D01*
X92154048Y-91273333D01*
X92058810Y-91320952D01*
X91868333Y-91320952D01*
X91773095Y-91368571D01*
X91725476Y-91416190D01*
X91677857Y-91511429D01*
X91677857Y-91701905D01*
X91725476Y-91797143D01*
X91773095Y-91844762D01*
X91868333Y-91892381D01*
X92058810Y-91892381D01*
X92154048Y-91844762D01*
X92201667Y-91797143D01*
X92249286Y-91701905D01*
X92249286Y-91511429D01*
X92201667Y-91416190D01*
X92154048Y-91368571D01*
X92058810Y-91320952D01*
X127658905Y-102814381D02*
X127658905Y-101814381D01*
X127897000Y-101814381D01*
X128039858Y-101862000D01*
X128135096Y-101957238D01*
X128182715Y-102052476D01*
X128230334Y-102242952D01*
X128230334Y-102385810D01*
X128182715Y-102576286D01*
X128135096Y-102671524D01*
X128039858Y-102766762D01*
X127897000Y-102814381D01*
X127658905Y-102814381D01*
X128563667Y-101814381D02*
X129182715Y-101814381D01*
X128849381Y-102195333D01*
X128992239Y-102195333D01*
X129087477Y-102242952D01*
X129135096Y-102290571D01*
X129182715Y-102385810D01*
X129182715Y-102623905D01*
X129135096Y-102719143D01*
X129087477Y-102766762D01*
X128992239Y-102814381D01*
X128706524Y-102814381D01*
X128611286Y-102766762D01*
X128563667Y-102719143D01*
X123356762Y-98004381D02*
X123547239Y-98004381D01*
X123642477Y-98052000D01*
X123737715Y-98147238D01*
X123785334Y-98337714D01*
X123785334Y-98671048D01*
X123737715Y-98861524D01*
X123642477Y-98956762D01*
X123547239Y-99004381D01*
X123356762Y-99004381D01*
X123261524Y-98956762D01*
X123166286Y-98861524D01*
X123118667Y-98671048D01*
X123118667Y-98337714D01*
X123166286Y-98147238D01*
X123261524Y-98052000D01*
X123356762Y-98004381D01*
X124213905Y-99004381D02*
X124213905Y-98004381D01*
X124785334Y-99004381D02*
X124356762Y-98432952D01*
X124785334Y-98004381D02*
X124213905Y-98575810D01*
X127658905Y-94686381D02*
X127658905Y-93686381D01*
X127897000Y-93686381D01*
X128039858Y-93734000D01*
X128135096Y-93829238D01*
X128182715Y-93924476D01*
X128230334Y-94114952D01*
X128230334Y-94257810D01*
X128182715Y-94448286D01*
X128135096Y-94543524D01*
X128039858Y-94638762D01*
X127897000Y-94686381D01*
X127658905Y-94686381D01*
X129087477Y-94019714D02*
X129087477Y-94686381D01*
X128849381Y-93638762D02*
X128611286Y-94353048D01*
X129230334Y-94353048D01*
X123094858Y-90352571D02*
X123237715Y-90400190D01*
X123285334Y-90447810D01*
X123332953Y-90543048D01*
X123332953Y-90685905D01*
X123285334Y-90781143D01*
X123237715Y-90828762D01*
X123142477Y-90876381D01*
X122761524Y-90876381D01*
X122761524Y-89876381D01*
X123094858Y-89876381D01*
X123190096Y-89924000D01*
X123237715Y-89971619D01*
X123285334Y-90066857D01*
X123285334Y-90162095D01*
X123237715Y-90257333D01*
X123190096Y-90304952D01*
X123094858Y-90352571D01*
X122761524Y-90352571D01*
X123713905Y-90590667D02*
X124190096Y-90590667D01*
X123618667Y-90876381D02*
X123952000Y-89876381D01*
X124285334Y-90876381D01*
X124618667Y-90876381D02*
X124618667Y-89876381D01*
X124856762Y-89876381D01*
X124999620Y-89924000D01*
X125094858Y-90019238D01*
X125142477Y-90114476D01*
X125190096Y-90304952D01*
X125190096Y-90447810D01*
X125142477Y-90638286D01*
X125094858Y-90733524D01*
X124999620Y-90828762D01*
X124856762Y-90876381D01*
X124618667Y-90876381D01*
X83597858Y-80462381D02*
X83026429Y-80462381D01*
X83312143Y-80462381D02*
X83312143Y-79462381D01*
X83216905Y-79605238D01*
X83121667Y-79700476D01*
X83026429Y-79748095D01*
X84026429Y-80367143D02*
X84074048Y-80414762D01*
X84026429Y-80462381D01*
X83978810Y-80414762D01*
X84026429Y-80367143D01*
X84026429Y-80462381D01*
X84978810Y-79462381D02*
X84502619Y-79462381D01*
X84455000Y-79938571D01*
X84502619Y-79890952D01*
X84597857Y-79843333D01*
X84835953Y-79843333D01*
X84931191Y-79890952D01*
X84978810Y-79938571D01*
X85026429Y-80033810D01*
X85026429Y-80271905D01*
X84978810Y-80367143D01*
X84931191Y-80414762D01*
X84835953Y-80462381D01*
X84597857Y-80462381D01*
X84502619Y-80414762D01*
X84455000Y-80367143D01*
X85407381Y-80176667D02*
X85883572Y-80176667D01*
X85312143Y-80462381D02*
X85645476Y-79462381D01*
X85978810Y-80462381D01*
X58507381Y-84153333D02*
X59221667Y-84153333D01*
X59364524Y-84200953D01*
X59459762Y-84296191D01*
X59507381Y-84439048D01*
X59507381Y-84534286D01*
X59507381Y-83153333D02*
X59507381Y-83724762D01*
X59507381Y-83439048D02*
X58507381Y-83439048D01*
X58650238Y-83534286D01*
X58745476Y-83629524D01*
X58793095Y-83724762D01*
X58507381Y-72723333D02*
X59221667Y-72723333D01*
X59364524Y-72770953D01*
X59459762Y-72866191D01*
X59507381Y-73009048D01*
X59507381Y-73104286D01*
X58507381Y-72342381D02*
X58507381Y-71723333D01*
X58888333Y-72056667D01*
X58888333Y-71913809D01*
X58935952Y-71818571D01*
X58983571Y-71770952D01*
X59078810Y-71723333D01*
X59316905Y-71723333D01*
X59412143Y-71770952D01*
X59459762Y-71818571D01*
X59507381Y-71913809D01*
X59507381Y-72199524D01*
X59459762Y-72294762D01*
X59412143Y-72342381D01*
X130262381Y-72723333D02*
X130976667Y-72723333D01*
X131119524Y-72770953D01*
X131214762Y-72866191D01*
X131262381Y-73009048D01*
X131262381Y-73104286D01*
X130595714Y-71818571D02*
X131262381Y-71818571D01*
X130214762Y-72056667D02*
X130929048Y-72294762D01*
X130929048Y-71675714D01*
X72223334Y-104592381D02*
X71890000Y-104116190D01*
X71651905Y-104592381D02*
X71651905Y-103592381D01*
X72032858Y-103592381D01*
X72128096Y-103640000D01*
X72175715Y-103687619D01*
X72223334Y-103782857D01*
X72223334Y-103925714D01*
X72175715Y-104020952D01*
X72128096Y-104068571D01*
X72032858Y-104116190D01*
X71651905Y-104116190D01*
X73175715Y-104592381D02*
X72604286Y-104592381D01*
X72890000Y-104592381D02*
X72890000Y-103592381D01*
X72794762Y-103735238D01*
X72699524Y-103830476D01*
X72604286Y-103878095D01*
X74803096Y-103925714D02*
X74803096Y-104592381D01*
X74565000Y-103544762D02*
X74326905Y-104259048D01*
X74945953Y-104259048D01*
X75231667Y-103592381D02*
X75898334Y-103592381D01*
X75469762Y-104592381D01*
X76469762Y-103592381D02*
X76565001Y-103592381D01*
X76660239Y-103640000D01*
X76707858Y-103687619D01*
X76755477Y-103782857D01*
X76803096Y-103973333D01*
X76803096Y-104211429D01*
X76755477Y-104401905D01*
X76707858Y-104497143D01*
X76660239Y-104544762D01*
X76565001Y-104592381D01*
X76469762Y-104592381D01*
X76374524Y-104544762D01*
X76326905Y-104497143D01*
X76279286Y-104401905D01*
X76231667Y-104211429D01*
X76231667Y-103973333D01*
X76279286Y-103782857D01*
X76326905Y-103687619D01*
X76374524Y-103640000D01*
X76469762Y-103592381D01*
X87463334Y-98877381D02*
X87130000Y-98401190D01*
X86891905Y-98877381D02*
X86891905Y-97877381D01*
X87272858Y-97877381D01*
X87368096Y-97925000D01*
X87415715Y-97972619D01*
X87463334Y-98067857D01*
X87463334Y-98210714D01*
X87415715Y-98305952D01*
X87368096Y-98353571D01*
X87272858Y-98401190D01*
X86891905Y-98401190D01*
X87844286Y-97972619D02*
X87891905Y-97925000D01*
X87987143Y-97877381D01*
X88225239Y-97877381D01*
X88320477Y-97925000D01*
X88368096Y-97972619D01*
X88415715Y-98067857D01*
X88415715Y-98163095D01*
X88368096Y-98305952D01*
X87796667Y-98877381D01*
X88415715Y-98877381D01*
X90043096Y-98210714D02*
X90043096Y-98877381D01*
X89805000Y-97829762D02*
X89566905Y-98544048D01*
X90185953Y-98544048D01*
X90471667Y-97877381D02*
X91138334Y-97877381D01*
X90709762Y-98877381D01*
X91709762Y-97877381D02*
X91805001Y-97877381D01*
X91900239Y-97925000D01*
X91947858Y-97972619D01*
X91995477Y-98067857D01*
X92043096Y-98258333D01*
X92043096Y-98496429D01*
X91995477Y-98686905D01*
X91947858Y-98782143D01*
X91900239Y-98829762D01*
X91805001Y-98877381D01*
X91709762Y-98877381D01*
X91614524Y-98829762D01*
X91566905Y-98782143D01*
X91519286Y-98686905D01*
X91471667Y-98496429D01*
X91471667Y-98258333D01*
X91519286Y-98067857D01*
X91566905Y-97972619D01*
X91614524Y-97925000D01*
X91709762Y-97877381D01*
X72223334Y-98877381D02*
X71890000Y-98401190D01*
X71651905Y-98877381D02*
X71651905Y-97877381D01*
X72032858Y-97877381D01*
X72128096Y-97925000D01*
X72175715Y-97972619D01*
X72223334Y-98067857D01*
X72223334Y-98210714D01*
X72175715Y-98305952D01*
X72128096Y-98353571D01*
X72032858Y-98401190D01*
X71651905Y-98401190D01*
X72556667Y-97877381D02*
X73175715Y-97877381D01*
X72842381Y-98258333D01*
X72985239Y-98258333D01*
X73080477Y-98305952D01*
X73128096Y-98353571D01*
X73175715Y-98448810D01*
X73175715Y-98686905D01*
X73128096Y-98782143D01*
X73080477Y-98829762D01*
X72985239Y-98877381D01*
X72699524Y-98877381D01*
X72604286Y-98829762D01*
X72556667Y-98782143D01*
X74398333Y-97972619D02*
X74445952Y-97925000D01*
X74541190Y-97877381D01*
X74779286Y-97877381D01*
X74874524Y-97925000D01*
X74922143Y-97972619D01*
X74969762Y-98067857D01*
X74969762Y-98163095D01*
X74922143Y-98305952D01*
X74350714Y-98877381D01*
X74969762Y-98877381D01*
X75398333Y-98877381D02*
X75398333Y-97877381D01*
X75493571Y-98496429D02*
X75779286Y-98877381D01*
X75779286Y-98210714D02*
X75398333Y-98591667D01*
X76160238Y-97972619D02*
X76207857Y-97925000D01*
X76303095Y-97877381D01*
X76541191Y-97877381D01*
X76636429Y-97925000D01*
X76684048Y-97972619D01*
X76731667Y-98067857D01*
X76731667Y-98163095D01*
X76684048Y-98305952D01*
X76112619Y-98877381D01*
X76731667Y-98877381D01*
X112228334Y-104592381D02*
X111895000Y-104116190D01*
X111656905Y-104592381D02*
X111656905Y-103592381D01*
X112037858Y-103592381D01*
X112133096Y-103640000D01*
X112180715Y-103687619D01*
X112228334Y-103782857D01*
X112228334Y-103925714D01*
X112180715Y-104020952D01*
X112133096Y-104068571D01*
X112037858Y-104116190D01*
X111656905Y-104116190D01*
X113085477Y-103925714D02*
X113085477Y-104592381D01*
X112847381Y-103544762D02*
X112609286Y-104259048D01*
X113228334Y-104259048D01*
X114808096Y-103925714D02*
X114808096Y-104592381D01*
X114570000Y-103544762D02*
X114331905Y-104259048D01*
X114950953Y-104259048D01*
X115236667Y-103592381D02*
X115903334Y-103592381D01*
X115474762Y-104592381D01*
X116474762Y-103592381D02*
X116570001Y-103592381D01*
X116665239Y-103640000D01*
X116712858Y-103687619D01*
X116760477Y-103782857D01*
X116808096Y-103973333D01*
X116808096Y-104211429D01*
X116760477Y-104401905D01*
X116712858Y-104497143D01*
X116665239Y-104544762D01*
X116570001Y-104592381D01*
X116474762Y-104592381D01*
X116379524Y-104544762D01*
X116331905Y-104497143D01*
X116284286Y-104401905D01*
X116236667Y-104211429D01*
X116236667Y-103973333D01*
X116284286Y-103782857D01*
X116331905Y-103687619D01*
X116379524Y-103640000D01*
X116474762Y-103592381D01*
X112228334Y-100782381D02*
X111895000Y-100306190D01*
X111656905Y-100782381D02*
X111656905Y-99782381D01*
X112037858Y-99782381D01*
X112133096Y-99830000D01*
X112180715Y-99877619D01*
X112228334Y-99972857D01*
X112228334Y-100115714D01*
X112180715Y-100210952D01*
X112133096Y-100258571D01*
X112037858Y-100306190D01*
X111656905Y-100306190D01*
X113133096Y-99782381D02*
X112656905Y-99782381D01*
X112609286Y-100258571D01*
X112656905Y-100210952D01*
X112752143Y-100163333D01*
X112990239Y-100163333D01*
X113085477Y-100210952D01*
X113133096Y-100258571D01*
X113180715Y-100353810D01*
X113180715Y-100591905D01*
X113133096Y-100687143D01*
X113085477Y-100734762D01*
X112990239Y-100782381D01*
X112752143Y-100782381D01*
X112656905Y-100734762D01*
X112609286Y-100687143D01*
X114808096Y-100115714D02*
X114808096Y-100782381D01*
X114570000Y-99734762D02*
X114331905Y-100449048D01*
X114950953Y-100449048D01*
X115236667Y-99782381D02*
X115903334Y-99782381D01*
X115474762Y-100782381D01*
X116474762Y-99782381D02*
X116570001Y-99782381D01*
X116665239Y-99830000D01*
X116712858Y-99877619D01*
X116760477Y-99972857D01*
X116808096Y-100163333D01*
X116808096Y-100401429D01*
X116760477Y-100591905D01*
X116712858Y-100687143D01*
X116665239Y-100734762D01*
X116570001Y-100782381D01*
X116474762Y-100782381D01*
X116379524Y-100734762D01*
X116331905Y-100687143D01*
X116284286Y-100591905D01*
X116236667Y-100401429D01*
X116236667Y-100163333D01*
X116284286Y-99972857D01*
X116331905Y-99877619D01*
X116379524Y-99830000D01*
X116474762Y-99782381D01*
X88796905Y-104592381D02*
X88796905Y-103592381D01*
X89035000Y-103592381D01*
X89177858Y-103640000D01*
X89273096Y-103735238D01*
X89320715Y-103830476D01*
X89368334Y-104020952D01*
X89368334Y-104163810D01*
X89320715Y-104354286D01*
X89273096Y-104449524D01*
X89177858Y-104544762D01*
X89035000Y-104592381D01*
X88796905Y-104592381D01*
X90320715Y-104592381D02*
X89749286Y-104592381D01*
X90035000Y-104592381D02*
X90035000Y-103592381D01*
X89939762Y-103735238D01*
X89844524Y-103830476D01*
X89749286Y-103878095D01*
X86963572Y-102687381D02*
X86392143Y-102687381D01*
X86677857Y-102687381D02*
X86677857Y-101687381D01*
X86582619Y-101830238D01*
X86487381Y-101925476D01*
X86392143Y-101973095D01*
X87392143Y-102687381D02*
X87392143Y-101687381D01*
X87963572Y-102687381D01*
X87963572Y-101687381D01*
X88868334Y-102020714D02*
X88868334Y-102687381D01*
X88630238Y-101639762D02*
X88392143Y-102354048D01*
X89011191Y-102354048D01*
X89296905Y-101687381D02*
X89963572Y-101687381D01*
X89535000Y-102687381D01*
X90249286Y-101687381D02*
X90868334Y-101687381D01*
X90535000Y-102068333D01*
X90677858Y-102068333D01*
X90773096Y-102115952D01*
X90820715Y-102163571D01*
X90868334Y-102258810D01*
X90868334Y-102496905D01*
X90820715Y-102592143D01*
X90773096Y-102639762D01*
X90677858Y-102687381D01*
X90392143Y-102687381D01*
X90296905Y-102639762D01*
X90249286Y-102592143D01*
X91249286Y-101782619D02*
X91296905Y-101735000D01*
X91392143Y-101687381D01*
X91630239Y-101687381D01*
X91725477Y-101735000D01*
X91773096Y-101782619D01*
X91820715Y-101877857D01*
X91820715Y-101973095D01*
X91773096Y-102115952D01*
X91201667Y-102687381D01*
X91820715Y-102687381D01*
X92201667Y-102401667D02*
X92677858Y-102401667D01*
X92106429Y-102687381D02*
X92439762Y-101687381D01*
X92773096Y-102687381D01*
X98972619Y-102965238D02*
X98925000Y-103060476D01*
X98829762Y-103155714D01*
X98686905Y-103298571D01*
X98639286Y-103393810D01*
X98639286Y-103489048D01*
X98877381Y-103441429D02*
X98829762Y-103536667D01*
X98734524Y-103631905D01*
X98544048Y-103679524D01*
X98210714Y-103679524D01*
X98020238Y-103631905D01*
X97925000Y-103536667D01*
X97877381Y-103441429D01*
X97877381Y-103250952D01*
X97925000Y-103155714D01*
X98020238Y-103060476D01*
X98210714Y-103012857D01*
X98544048Y-103012857D01*
X98734524Y-103060476D01*
X98829762Y-103155714D01*
X98877381Y-103250952D01*
X98877381Y-103441429D01*
X98877381Y-102060476D02*
X98877381Y-102631905D01*
X98877381Y-102346191D02*
X97877381Y-102346191D01*
X98020238Y-102441429D01*
X98115476Y-102536667D01*
X98163095Y-102631905D01*
X98972619Y-97885238D02*
X98925000Y-97980476D01*
X98829762Y-98075714D01*
X98686905Y-98218571D01*
X98639286Y-98313810D01*
X98639286Y-98409048D01*
X98877381Y-98361429D02*
X98829762Y-98456667D01*
X98734524Y-98551905D01*
X98544048Y-98599524D01*
X98210714Y-98599524D01*
X98020238Y-98551905D01*
X97925000Y-98456667D01*
X97877381Y-98361429D01*
X97877381Y-98170952D01*
X97925000Y-98075714D01*
X98020238Y-97980476D01*
X98210714Y-97932857D01*
X98544048Y-97932857D01*
X98734524Y-97980476D01*
X98829762Y-98075714D01*
X98877381Y-98170952D01*
X98877381Y-98361429D01*
X97972619Y-97551905D02*
X97925000Y-97504286D01*
X97877381Y-97409048D01*
X97877381Y-97170952D01*
X97925000Y-97075714D01*
X97972619Y-97028095D01*
X98067857Y-96980476D01*
X98163095Y-96980476D01*
X98305952Y-97028095D01*
X98877381Y-97599524D01*
X98877381Y-96980476D01*
M02*
