G04 #@! TF.FileFunction,Legend,Top*
%FSLAX46Y46*%
G04 Gerber Fmt 4.6, Leading zero omitted, Abs format (unit mm)*
G04 Created by KiCad (PCBNEW 4.0.7) date 09/02/18 19:48:13*
%MOMM*%
%LPD*%
G01*
G04 APERTURE LIST*
%ADD10C,0.100000*%
%ADD11C,0.300000*%
%ADD12C,0.120000*%
%ADD13C,0.150000*%
G04 APERTURE END LIST*
D10*
D11*
X86115002Y-69740714D02*
X86043573Y-69812143D01*
X85829287Y-69883571D01*
X85686430Y-69883571D01*
X85472145Y-69812143D01*
X85329287Y-69669286D01*
X85257859Y-69526429D01*
X85186430Y-69240714D01*
X85186430Y-69026429D01*
X85257859Y-68740714D01*
X85329287Y-68597857D01*
X85472145Y-68455000D01*
X85686430Y-68383571D01*
X85829287Y-68383571D01*
X86043573Y-68455000D01*
X86115002Y-68526429D01*
X87400716Y-68383571D02*
X87115002Y-68383571D01*
X86972145Y-68455000D01*
X86900716Y-68526429D01*
X86757859Y-68740714D01*
X86686430Y-69026429D01*
X86686430Y-69597857D01*
X86757859Y-69740714D01*
X86829287Y-69812143D01*
X86972145Y-69883571D01*
X87257859Y-69883571D01*
X87400716Y-69812143D01*
X87472145Y-69740714D01*
X87543573Y-69597857D01*
X87543573Y-69240714D01*
X87472145Y-69097857D01*
X87400716Y-69026429D01*
X87257859Y-68955000D01*
X86972145Y-68955000D01*
X86829287Y-69026429D01*
X86757859Y-69097857D01*
X86686430Y-69240714D01*
X88829287Y-68883571D02*
X88829287Y-69883571D01*
X88472144Y-68312143D02*
X88115001Y-69383571D01*
X89043573Y-69383571D01*
X90757858Y-69883571D02*
X90757858Y-68383571D01*
X91329286Y-68383571D01*
X91472144Y-68455000D01*
X91543572Y-68526429D01*
X91615001Y-68669286D01*
X91615001Y-68883571D01*
X91543572Y-69026429D01*
X91472144Y-69097857D01*
X91329286Y-69169286D01*
X90757858Y-69169286D01*
X92472144Y-69883571D02*
X92329286Y-69812143D01*
X92257858Y-69740714D01*
X92186429Y-69597857D01*
X92186429Y-69169286D01*
X92257858Y-69026429D01*
X92329286Y-68955000D01*
X92472144Y-68883571D01*
X92686429Y-68883571D01*
X92829286Y-68955000D01*
X92900715Y-69026429D01*
X92972144Y-69169286D01*
X92972144Y-69597857D01*
X92900715Y-69740714D01*
X92829286Y-69812143D01*
X92686429Y-69883571D01*
X92472144Y-69883571D01*
X93472144Y-68883571D02*
X93757858Y-69883571D01*
X94043572Y-69169286D01*
X94329287Y-69883571D01*
X94615001Y-68883571D01*
X95757858Y-69812143D02*
X95615001Y-69883571D01*
X95329287Y-69883571D01*
X95186430Y-69812143D01*
X95115001Y-69669286D01*
X95115001Y-69097857D01*
X95186430Y-68955000D01*
X95329287Y-68883571D01*
X95615001Y-68883571D01*
X95757858Y-68955000D01*
X95829287Y-69097857D01*
X95829287Y-69240714D01*
X95115001Y-69383571D01*
X96472144Y-69883571D02*
X96472144Y-68883571D01*
X96472144Y-69169286D02*
X96543572Y-69026429D01*
X96615001Y-68955000D01*
X96757858Y-68883571D01*
X96900715Y-68883571D01*
X98472143Y-69812143D02*
X98686429Y-69883571D01*
X99043572Y-69883571D01*
X99186429Y-69812143D01*
X99257858Y-69740714D01*
X99329286Y-69597857D01*
X99329286Y-69455000D01*
X99257858Y-69312143D01*
X99186429Y-69240714D01*
X99043572Y-69169286D01*
X98757858Y-69097857D01*
X98615000Y-69026429D01*
X98543572Y-68955000D01*
X98472143Y-68812143D01*
X98472143Y-68669286D01*
X98543572Y-68526429D01*
X98615000Y-68455000D01*
X98757858Y-68383571D01*
X99115000Y-68383571D01*
X99329286Y-68455000D01*
X100615000Y-69883571D02*
X100615000Y-69097857D01*
X100543571Y-68955000D01*
X100400714Y-68883571D01*
X100115000Y-68883571D01*
X99972143Y-68955000D01*
X100615000Y-69812143D02*
X100472143Y-69883571D01*
X100115000Y-69883571D01*
X99972143Y-69812143D01*
X99900714Y-69669286D01*
X99900714Y-69526429D01*
X99972143Y-69383571D01*
X100115000Y-69312143D01*
X100472143Y-69312143D01*
X100615000Y-69240714D01*
X101186429Y-68883571D02*
X101543572Y-69883571D01*
X101900714Y-68883571D01*
X103043571Y-69812143D02*
X102900714Y-69883571D01*
X102615000Y-69883571D01*
X102472143Y-69812143D01*
X102400714Y-69669286D01*
X102400714Y-69097857D01*
X102472143Y-68955000D01*
X102615000Y-68883571D01*
X102900714Y-68883571D01*
X103043571Y-68955000D01*
X103115000Y-69097857D01*
X103115000Y-69240714D01*
X102400714Y-69383571D01*
X103757857Y-69883571D02*
X103757857Y-68883571D01*
X103757857Y-69169286D02*
X103829285Y-69026429D01*
X103900714Y-68955000D01*
X104043571Y-68883571D01*
X104186428Y-68883571D01*
X89972143Y-72433571D02*
X89472143Y-71719286D01*
X89115000Y-72433571D02*
X89115000Y-70933571D01*
X89686428Y-70933571D01*
X89829286Y-71005000D01*
X89900714Y-71076429D01*
X89972143Y-71219286D01*
X89972143Y-71433571D01*
X89900714Y-71576429D01*
X89829286Y-71647857D01*
X89686428Y-71719286D01*
X89115000Y-71719286D01*
X91186428Y-72362143D02*
X91043571Y-72433571D01*
X90757857Y-72433571D01*
X90615000Y-72362143D01*
X90543571Y-72219286D01*
X90543571Y-71647857D01*
X90615000Y-71505000D01*
X90757857Y-71433571D01*
X91043571Y-71433571D01*
X91186428Y-71505000D01*
X91257857Y-71647857D01*
X91257857Y-71790714D01*
X90543571Y-71933571D01*
X91757857Y-71433571D02*
X92115000Y-72433571D01*
X92472142Y-71433571D01*
X93043571Y-72433571D02*
X93043571Y-71433571D01*
X93043571Y-70933571D02*
X92972142Y-71005000D01*
X93043571Y-71076429D01*
X93114999Y-71005000D01*
X93043571Y-70933571D01*
X93043571Y-71076429D01*
X93686428Y-72362143D02*
X93829285Y-72433571D01*
X94115000Y-72433571D01*
X94257857Y-72362143D01*
X94329285Y-72219286D01*
X94329285Y-72147857D01*
X94257857Y-72005000D01*
X94115000Y-71933571D01*
X93900714Y-71933571D01*
X93757857Y-71862143D01*
X93686428Y-71719286D01*
X93686428Y-71647857D01*
X93757857Y-71505000D01*
X93900714Y-71433571D01*
X94115000Y-71433571D01*
X94257857Y-71505000D01*
X94972143Y-72433571D02*
X94972143Y-71433571D01*
X94972143Y-70933571D02*
X94900714Y-71005000D01*
X94972143Y-71076429D01*
X95043571Y-71005000D01*
X94972143Y-70933571D01*
X94972143Y-71076429D01*
X95900715Y-72433571D02*
X95757857Y-72362143D01*
X95686429Y-72290714D01*
X95615000Y-72147857D01*
X95615000Y-71719286D01*
X95686429Y-71576429D01*
X95757857Y-71505000D01*
X95900715Y-71433571D01*
X96115000Y-71433571D01*
X96257857Y-71505000D01*
X96329286Y-71576429D01*
X96400715Y-71719286D01*
X96400715Y-72147857D01*
X96329286Y-72290714D01*
X96257857Y-72362143D01*
X96115000Y-72433571D01*
X95900715Y-72433571D01*
X97043572Y-71433571D02*
X97043572Y-72433571D01*
X97043572Y-71576429D02*
X97115000Y-71505000D01*
X97257858Y-71433571D01*
X97472143Y-71433571D01*
X97615000Y-71505000D01*
X97686429Y-71647857D01*
X97686429Y-72433571D01*
X99472143Y-72005000D02*
X100186429Y-72005000D01*
X99329286Y-72433571D02*
X99829286Y-70933571D01*
X100329286Y-72433571D01*
X75829285Y-74983571D02*
X75829285Y-73483571D01*
X76472142Y-74983571D02*
X76472142Y-74197857D01*
X76400713Y-74055000D01*
X76257856Y-73983571D01*
X76043571Y-73983571D01*
X75900713Y-74055000D01*
X75829285Y-74126429D01*
X76972142Y-73983571D02*
X77543571Y-73983571D01*
X77186428Y-73483571D02*
X77186428Y-74769286D01*
X77257856Y-74912143D01*
X77400714Y-74983571D01*
X77543571Y-74983571D01*
X77829285Y-73983571D02*
X78400714Y-73983571D01*
X78043571Y-73483571D02*
X78043571Y-74769286D01*
X78114999Y-74912143D01*
X78257857Y-74983571D01*
X78400714Y-74983571D01*
X78900714Y-73983571D02*
X78900714Y-75483571D01*
X78900714Y-74055000D02*
X79043571Y-73983571D01*
X79329285Y-73983571D01*
X79472142Y-74055000D01*
X79543571Y-74126429D01*
X79615000Y-74269286D01*
X79615000Y-74697857D01*
X79543571Y-74840714D01*
X79472142Y-74912143D01*
X79329285Y-74983571D01*
X79043571Y-74983571D01*
X78900714Y-74912143D01*
X80186428Y-74912143D02*
X80329285Y-74983571D01*
X80615000Y-74983571D01*
X80757857Y-74912143D01*
X80829285Y-74769286D01*
X80829285Y-74697857D01*
X80757857Y-74555000D01*
X80615000Y-74483571D01*
X80400714Y-74483571D01*
X80257857Y-74412143D01*
X80186428Y-74269286D01*
X80186428Y-74197857D01*
X80257857Y-74055000D01*
X80400714Y-73983571D01*
X80615000Y-73983571D01*
X80757857Y-74055000D01*
X81472143Y-74840714D02*
X81543571Y-74912143D01*
X81472143Y-74983571D01*
X81400714Y-74912143D01*
X81472143Y-74840714D01*
X81472143Y-74983571D01*
X81472143Y-74055000D02*
X81543571Y-74126429D01*
X81472143Y-74197857D01*
X81400714Y-74126429D01*
X81472143Y-74055000D01*
X81472143Y-74197857D01*
X83257857Y-73412143D02*
X81972143Y-75340714D01*
X84829286Y-73412143D02*
X83543572Y-75340714D01*
X85329287Y-74983571D02*
X85329287Y-73483571D01*
X85972144Y-74983571D02*
X85972144Y-74197857D01*
X85900715Y-74055000D01*
X85757858Y-73983571D01*
X85543573Y-73983571D01*
X85400715Y-74055000D01*
X85329287Y-74126429D01*
X86543573Y-73983571D02*
X86900716Y-74983571D01*
X87257858Y-73983571D01*
X88400715Y-74912143D02*
X88257858Y-74983571D01*
X87972144Y-74983571D01*
X87829287Y-74912143D01*
X87757858Y-74769286D01*
X87757858Y-74197857D01*
X87829287Y-74055000D01*
X87972144Y-73983571D01*
X88257858Y-73983571D01*
X88400715Y-74055000D01*
X88472144Y-74197857D01*
X88472144Y-74340714D01*
X87757858Y-74483571D01*
X88900715Y-73983571D02*
X89472144Y-73983571D01*
X89115001Y-73483571D02*
X89115001Y-74769286D01*
X89186429Y-74912143D01*
X89329287Y-74983571D01*
X89472144Y-74983571D01*
X90543572Y-74912143D02*
X90400715Y-74983571D01*
X90115001Y-74983571D01*
X89972144Y-74912143D01*
X89900715Y-74769286D01*
X89900715Y-74197857D01*
X89972144Y-74055000D01*
X90115001Y-73983571D01*
X90400715Y-73983571D01*
X90543572Y-74055000D01*
X90615001Y-74197857D01*
X90615001Y-74340714D01*
X89900715Y-74483571D01*
X91257858Y-74983571D02*
X91257858Y-73483571D01*
X91257858Y-74055000D02*
X91400715Y-73983571D01*
X91686429Y-73983571D01*
X91829286Y-74055000D01*
X91900715Y-74126429D01*
X91972144Y-74269286D01*
X91972144Y-74697857D01*
X91900715Y-74840714D01*
X91829286Y-74912143D01*
X91686429Y-74983571D01*
X91400715Y-74983571D01*
X91257858Y-74912143D01*
X92829287Y-74983571D02*
X92686429Y-74912143D01*
X92615001Y-74840714D01*
X92543572Y-74697857D01*
X92543572Y-74269286D01*
X92615001Y-74126429D01*
X92686429Y-74055000D01*
X92829287Y-73983571D01*
X93043572Y-73983571D01*
X93186429Y-74055000D01*
X93257858Y-74126429D01*
X93329287Y-74269286D01*
X93329287Y-74697857D01*
X93257858Y-74840714D01*
X93186429Y-74912143D01*
X93043572Y-74983571D01*
X92829287Y-74983571D01*
X94186430Y-74983571D02*
X94043572Y-74912143D01*
X93972144Y-74769286D01*
X93972144Y-73483571D01*
X94972144Y-74983571D02*
X94829286Y-74912143D01*
X94757858Y-74769286D01*
X94757858Y-73483571D01*
X96115000Y-74912143D02*
X95972143Y-74983571D01*
X95686429Y-74983571D01*
X95543572Y-74912143D01*
X95472143Y-74769286D01*
X95472143Y-74197857D01*
X95543572Y-74055000D01*
X95686429Y-73983571D01*
X95972143Y-73983571D01*
X96115000Y-74055000D01*
X96186429Y-74197857D01*
X96186429Y-74340714D01*
X95472143Y-74483571D01*
X96829286Y-74840714D02*
X96900714Y-74912143D01*
X96829286Y-74983571D01*
X96757857Y-74912143D01*
X96829286Y-74840714D01*
X96829286Y-74983571D01*
X97543572Y-74983571D02*
X97543572Y-73483571D01*
X97543572Y-74055000D02*
X97686429Y-73983571D01*
X97972143Y-73983571D01*
X98115000Y-74055000D01*
X98186429Y-74126429D01*
X98257858Y-74269286D01*
X98257858Y-74697857D01*
X98186429Y-74840714D01*
X98115000Y-74912143D01*
X97972143Y-74983571D01*
X97686429Y-74983571D01*
X97543572Y-74912143D01*
X99115001Y-74983571D02*
X98972143Y-74912143D01*
X98900715Y-74769286D01*
X98900715Y-73483571D01*
X99900715Y-74983571D02*
X99757857Y-74912143D01*
X99686429Y-74840714D01*
X99615000Y-74697857D01*
X99615000Y-74269286D01*
X99686429Y-74126429D01*
X99757857Y-74055000D01*
X99900715Y-73983571D01*
X100115000Y-73983571D01*
X100257857Y-74055000D01*
X100329286Y-74126429D01*
X100400715Y-74269286D01*
X100400715Y-74697857D01*
X100329286Y-74840714D01*
X100257857Y-74912143D01*
X100115000Y-74983571D01*
X99900715Y-74983571D01*
X101686429Y-73983571D02*
X101686429Y-75197857D01*
X101615000Y-75340714D01*
X101543572Y-75412143D01*
X101400715Y-75483571D01*
X101186429Y-75483571D01*
X101043572Y-75412143D01*
X101686429Y-74912143D02*
X101543572Y-74983571D01*
X101257858Y-74983571D01*
X101115000Y-74912143D01*
X101043572Y-74840714D01*
X100972143Y-74697857D01*
X100972143Y-74269286D01*
X101043572Y-74126429D01*
X101115000Y-74055000D01*
X101257858Y-73983571D01*
X101543572Y-73983571D01*
X101686429Y-74055000D01*
X102329286Y-74912143D02*
X102472143Y-74983571D01*
X102757858Y-74983571D01*
X102900715Y-74912143D01*
X102972143Y-74769286D01*
X102972143Y-74697857D01*
X102900715Y-74555000D01*
X102757858Y-74483571D01*
X102543572Y-74483571D01*
X102400715Y-74412143D01*
X102329286Y-74269286D01*
X102329286Y-74197857D01*
X102400715Y-74055000D01*
X102543572Y-73983571D01*
X102757858Y-73983571D01*
X102900715Y-74055000D01*
X103615001Y-73983571D02*
X103615001Y-75483571D01*
X103615001Y-74055000D02*
X103757858Y-73983571D01*
X104043572Y-73983571D01*
X104186429Y-74055000D01*
X104257858Y-74126429D01*
X104329287Y-74269286D01*
X104329287Y-74697857D01*
X104257858Y-74840714D01*
X104186429Y-74912143D01*
X104043572Y-74983571D01*
X103757858Y-74983571D01*
X103615001Y-74912143D01*
X105186430Y-74983571D02*
X105043572Y-74912143D01*
X104972144Y-74840714D01*
X104900715Y-74697857D01*
X104900715Y-74269286D01*
X104972144Y-74126429D01*
X105043572Y-74055000D01*
X105186430Y-73983571D01*
X105400715Y-73983571D01*
X105543572Y-74055000D01*
X105615001Y-74126429D01*
X105686430Y-74269286D01*
X105686430Y-74697857D01*
X105615001Y-74840714D01*
X105543572Y-74912143D01*
X105400715Y-74983571D01*
X105186430Y-74983571D01*
X106115001Y-73983571D02*
X106686430Y-73983571D01*
X106329287Y-73483571D02*
X106329287Y-74769286D01*
X106400715Y-74912143D01*
X106543573Y-74983571D01*
X106686430Y-74983571D01*
X107186430Y-74840714D02*
X107257858Y-74912143D01*
X107186430Y-74983571D01*
X107115001Y-74912143D01*
X107186430Y-74840714D01*
X107186430Y-74983571D01*
X108543573Y-74912143D02*
X108400716Y-74983571D01*
X108115002Y-74983571D01*
X107972144Y-74912143D01*
X107900716Y-74840714D01*
X107829287Y-74697857D01*
X107829287Y-74269286D01*
X107900716Y-74126429D01*
X107972144Y-74055000D01*
X108115002Y-73983571D01*
X108400716Y-73983571D01*
X108543573Y-74055000D01*
X109400716Y-74983571D02*
X109257858Y-74912143D01*
X109186430Y-74840714D01*
X109115001Y-74697857D01*
X109115001Y-74269286D01*
X109186430Y-74126429D01*
X109257858Y-74055000D01*
X109400716Y-73983571D01*
X109615001Y-73983571D01*
X109757858Y-74055000D01*
X109829287Y-74126429D01*
X109900716Y-74269286D01*
X109900716Y-74697857D01*
X109829287Y-74840714D01*
X109757858Y-74912143D01*
X109615001Y-74983571D01*
X109400716Y-74983571D01*
X110543573Y-74983571D02*
X110543573Y-73983571D01*
X110543573Y-74126429D02*
X110615001Y-74055000D01*
X110757859Y-73983571D01*
X110972144Y-73983571D01*
X111115001Y-74055000D01*
X111186430Y-74197857D01*
X111186430Y-74983571D01*
X111186430Y-74197857D02*
X111257859Y-74055000D01*
X111400716Y-73983571D01*
X111615001Y-73983571D01*
X111757859Y-74055000D01*
X111829287Y-74197857D01*
X111829287Y-74983571D01*
X113615001Y-73412143D02*
X112329287Y-75340714D01*
D12*
X125730000Y-78740000D02*
X125730000Y-88900000D01*
X127000000Y-78740000D02*
X119380000Y-78740000D01*
X119380000Y-78740000D02*
X119380000Y-88900000D01*
X119380000Y-88900000D02*
X127000000Y-88900000D01*
X127000000Y-88900000D02*
X127000000Y-78740000D01*
X87475000Y-92285000D02*
X87475000Y-94405000D01*
X87475000Y-94405000D02*
X91595000Y-94405000D01*
X91595000Y-94405000D02*
X91595000Y-92285000D01*
X91595000Y-92285000D02*
X87475000Y-92285000D01*
X85435000Y-93345000D02*
X87475000Y-93345000D01*
X93635000Y-93345000D02*
X91595000Y-93345000D01*
X88135000Y-92285000D02*
X88135000Y-94405000D01*
X122105000Y-94614538D02*
G75*
G03X127655000Y-96159830I2990000J-462D01*
G01*
X122105000Y-94615462D02*
G75*
G02X127655000Y-93070170I2990000J462D01*
G01*
X127595000Y-94615000D02*
G75*
G03X127595000Y-94615000I-2500000J0D01*
G01*
X127655000Y-96160000D02*
X127655000Y-93070000D01*
X122105000Y-102869538D02*
G75*
G03X127655000Y-104414830I2990000J-462D01*
G01*
X122105000Y-102870462D02*
G75*
G02X127655000Y-101325170I2990000J462D01*
G01*
X127595000Y-102870000D02*
G75*
G03X127595000Y-102870000I-2500000J0D01*
G01*
X127655000Y-104415000D02*
X127655000Y-101325000D01*
X90250000Y-86320000D02*
X90250000Y-88820000D01*
X90250000Y-78820000D02*
X90250000Y-81320000D01*
X78250000Y-78820000D02*
X78250000Y-81320000D01*
X78250000Y-88820000D02*
X78250000Y-86320000D01*
X88750000Y-83820000D02*
X79750000Y-83820000D01*
X88750000Y-86320000D02*
X88750000Y-81320000D01*
X79750000Y-86320000D02*
X79750000Y-81320000D01*
X74250000Y-85720000D02*
X74250000Y-86320000D01*
X94250000Y-81920000D02*
X94250000Y-81320000D01*
X94250000Y-81320000D02*
X74250000Y-81320000D01*
X74250000Y-81320000D02*
X74250000Y-81920000D01*
X74250000Y-86320000D02*
X94250000Y-86320000D01*
X94250000Y-86320000D02*
X94250000Y-85720000D01*
X72250000Y-85720000D02*
X72250000Y-88820000D01*
X96250000Y-81920000D02*
X96250000Y-78820000D01*
X96250000Y-78820000D02*
X72250000Y-78820000D01*
X72250000Y-78820000D02*
X72250000Y-81920000D01*
X72250000Y-88820000D02*
X96250000Y-88820000D01*
X96250000Y-88820000D02*
X96250000Y-85720000D01*
X64135000Y-88900000D02*
X64135000Y-78740000D01*
X62865000Y-88900000D02*
X70485000Y-88900000D01*
X70485000Y-88900000D02*
X70485000Y-78740000D01*
X70485000Y-78740000D02*
X62865000Y-78740000D01*
X62865000Y-78740000D02*
X62865000Y-88900000D01*
X64135000Y-77470000D02*
X64135000Y-67310000D01*
X62865000Y-77470000D02*
X70485000Y-77470000D01*
X70485000Y-77470000D02*
X70485000Y-67310000D01*
X70485000Y-67310000D02*
X62865000Y-67310000D01*
X62865000Y-67310000D02*
X62865000Y-77470000D01*
X125730000Y-67310000D02*
X125730000Y-77470000D01*
X127000000Y-67310000D02*
X119380000Y-67310000D01*
X119380000Y-67310000D02*
X119380000Y-77470000D01*
X119380000Y-77470000D02*
X127000000Y-77470000D01*
X127000000Y-77470000D02*
X127000000Y-67310000D01*
X98295000Y-87560000D02*
X98295000Y-94160000D01*
X98295000Y-78560000D02*
X98295000Y-85160000D01*
X98295000Y-78560000D02*
X118095000Y-78560000D01*
X118095000Y-78560000D02*
X118095000Y-94160000D01*
X118095000Y-94160000D02*
X98295000Y-94160000D01*
X113845000Y-90560000D02*
X113845000Y-88110000D01*
X113845000Y-82160000D02*
X113845000Y-84660000D01*
X103245000Y-92410000D02*
X105745000Y-92410000D01*
X102345000Y-86410000D02*
X101545000Y-86410000D01*
X105745000Y-80410000D02*
X103245000Y-80410000D01*
X109145000Y-86410000D02*
X110645000Y-86410000D01*
X110645000Y-86410000D02*
X115245000Y-83910000D01*
X109145000Y-90010000D02*
X102345000Y-90010000D01*
X109145000Y-86410000D02*
X109145000Y-90010000D01*
X102345000Y-86410000D02*
X102345000Y-90010000D01*
X105745000Y-80410000D02*
X105745000Y-84610000D01*
X105745000Y-88210000D02*
X105745000Y-92410000D01*
X107745000Y-88210000D02*
X103745000Y-84610000D01*
X103745000Y-88210000D02*
X103745000Y-84610000D01*
X103745000Y-84610000D02*
X107745000Y-84610000D01*
X107745000Y-84610000D02*
X107745000Y-88210000D01*
X107745000Y-88210000D02*
X103745000Y-88210000D01*
X103400000Y-101020000D02*
X99800000Y-101020000D01*
X103438478Y-101031522D02*
G75*
G02X101600000Y-105470000I-1838478J-1838478D01*
G01*
X99761522Y-101031522D02*
G75*
G03X101600000Y-105470000I1838478J-1838478D01*
G01*
X99800000Y-99640000D02*
X103400000Y-99640000D01*
X99761522Y-99628478D02*
G75*
G02X101600000Y-95190000I1838478J1838478D01*
G01*
X103438478Y-99628478D02*
G75*
G03X101600000Y-95190000I-1838478J1838478D01*
G01*
X71085000Y-102830000D02*
X71085000Y-105450000D01*
X71085000Y-105450000D02*
X77505000Y-105450000D01*
X77505000Y-105450000D02*
X77505000Y-102830000D01*
X77505000Y-102830000D02*
X71085000Y-102830000D01*
X70195000Y-104140000D02*
X71085000Y-104140000D01*
X78395000Y-104140000D02*
X77505000Y-104140000D01*
X92745000Y-99735000D02*
X92745000Y-97115000D01*
X92745000Y-97115000D02*
X86325000Y-97115000D01*
X86325000Y-97115000D02*
X86325000Y-99735000D01*
X86325000Y-99735000D02*
X92745000Y-99735000D01*
X93635000Y-98425000D02*
X92745000Y-98425000D01*
X85435000Y-98425000D02*
X86325000Y-98425000D01*
X71085000Y-97115000D02*
X71085000Y-99735000D01*
X71085000Y-99735000D02*
X77505000Y-99735000D01*
X77505000Y-99735000D02*
X77505000Y-97115000D01*
X77505000Y-97115000D02*
X71085000Y-97115000D01*
X70195000Y-98425000D02*
X71085000Y-98425000D01*
X78395000Y-98425000D02*
X77505000Y-98425000D01*
X111090000Y-99020000D02*
X111090000Y-101640000D01*
X111090000Y-101640000D02*
X117510000Y-101640000D01*
X117510000Y-101640000D02*
X117510000Y-99020000D01*
X117510000Y-99020000D02*
X111090000Y-99020000D01*
X110200000Y-100330000D02*
X111090000Y-100330000D01*
X118400000Y-100330000D02*
X117510000Y-100330000D01*
X111090000Y-102830000D02*
X111090000Y-105450000D01*
X111090000Y-105450000D02*
X117510000Y-105450000D01*
X117510000Y-105450000D02*
X117510000Y-102830000D01*
X117510000Y-102830000D02*
X111090000Y-102830000D01*
X110200000Y-104140000D02*
X111090000Y-104140000D01*
X118400000Y-104140000D02*
X117510000Y-104140000D01*
X87475000Y-103080000D02*
X87475000Y-105200000D01*
X87475000Y-105200000D02*
X91595000Y-105200000D01*
X91595000Y-105200000D02*
X91595000Y-103080000D01*
X91595000Y-103080000D02*
X87475000Y-103080000D01*
X85435000Y-104140000D02*
X87475000Y-104140000D01*
X93635000Y-104140000D02*
X91595000Y-104140000D01*
X88135000Y-103080000D02*
X88135000Y-105200000D01*
D13*
X130262381Y-84153333D02*
X130976667Y-84153333D01*
X131119524Y-84200953D01*
X131214762Y-84296191D01*
X131262381Y-84439048D01*
X131262381Y-84534286D01*
X130357619Y-83724762D02*
X130310000Y-83677143D01*
X130262381Y-83581905D01*
X130262381Y-83343809D01*
X130310000Y-83248571D01*
X130357619Y-83200952D01*
X130452857Y-83153333D01*
X130548095Y-83153333D01*
X130690952Y-83200952D01*
X131262381Y-83772381D01*
X131262381Y-83153333D01*
X88796905Y-93797381D02*
X88796905Y-92797381D01*
X89035000Y-92797381D01*
X89177858Y-92845000D01*
X89273096Y-92940238D01*
X89320715Y-93035476D01*
X89368334Y-93225952D01*
X89368334Y-93368810D01*
X89320715Y-93559286D01*
X89273096Y-93654524D01*
X89177858Y-93749762D01*
X89035000Y-93797381D01*
X88796905Y-93797381D01*
X89749286Y-92892619D02*
X89796905Y-92845000D01*
X89892143Y-92797381D01*
X90130239Y-92797381D01*
X90225477Y-92845000D01*
X90273096Y-92892619D01*
X90320715Y-92987857D01*
X90320715Y-93083095D01*
X90273096Y-93225952D01*
X89701667Y-93797381D01*
X90320715Y-93797381D01*
X87868334Y-91892381D02*
X87296905Y-91892381D01*
X87582619Y-91892381D02*
X87582619Y-90892381D01*
X87487381Y-91035238D01*
X87392143Y-91130476D01*
X87296905Y-91178095D01*
X88296905Y-91892381D02*
X88296905Y-90892381D01*
X88868334Y-91892381D01*
X88868334Y-90892381D01*
X89392143Y-91892381D02*
X89582619Y-91892381D01*
X89677858Y-91844762D01*
X89725477Y-91797143D01*
X89820715Y-91654286D01*
X89868334Y-91463810D01*
X89868334Y-91082857D01*
X89820715Y-90987619D01*
X89773096Y-90940000D01*
X89677858Y-90892381D01*
X89487381Y-90892381D01*
X89392143Y-90940000D01*
X89344524Y-90987619D01*
X89296905Y-91082857D01*
X89296905Y-91320952D01*
X89344524Y-91416190D01*
X89392143Y-91463810D01*
X89487381Y-91511429D01*
X89677858Y-91511429D01*
X89773096Y-91463810D01*
X89820715Y-91416190D01*
X89868334Y-91320952D01*
X90820715Y-91892381D02*
X90249286Y-91892381D01*
X90535000Y-91892381D02*
X90535000Y-90892381D01*
X90439762Y-91035238D01*
X90344524Y-91130476D01*
X90249286Y-91178095D01*
X91677858Y-91225714D02*
X91677858Y-91892381D01*
X91439762Y-90844762D02*
X91201667Y-91559048D01*
X91820715Y-91559048D01*
X128801905Y-95067381D02*
X128801905Y-94067381D01*
X129040000Y-94067381D01*
X129182858Y-94115000D01*
X129278096Y-94210238D01*
X129325715Y-94305476D01*
X129373334Y-94495952D01*
X129373334Y-94638810D01*
X129325715Y-94829286D01*
X129278096Y-94924524D01*
X129182858Y-95019762D01*
X129040000Y-95067381D01*
X128801905Y-95067381D01*
X129706667Y-94067381D02*
X130325715Y-94067381D01*
X129992381Y-94448333D01*
X130135239Y-94448333D01*
X130230477Y-94495952D01*
X130278096Y-94543571D01*
X130325715Y-94638810D01*
X130325715Y-94876905D01*
X130278096Y-94972143D01*
X130230477Y-95019762D01*
X130135239Y-95067381D01*
X129849524Y-95067381D01*
X129754286Y-95019762D01*
X129706667Y-94972143D01*
X124499762Y-90257381D02*
X124690239Y-90257381D01*
X124785477Y-90305000D01*
X124880715Y-90400238D01*
X124928334Y-90590714D01*
X124928334Y-90924048D01*
X124880715Y-91114524D01*
X124785477Y-91209762D01*
X124690239Y-91257381D01*
X124499762Y-91257381D01*
X124404524Y-91209762D01*
X124309286Y-91114524D01*
X124261667Y-90924048D01*
X124261667Y-90590714D01*
X124309286Y-90400238D01*
X124404524Y-90305000D01*
X124499762Y-90257381D01*
X125356905Y-91257381D02*
X125356905Y-90257381D01*
X125928334Y-91257381D02*
X125499762Y-90685952D01*
X125928334Y-90257381D02*
X125356905Y-90828810D01*
X128801905Y-103322381D02*
X128801905Y-102322381D01*
X129040000Y-102322381D01*
X129182858Y-102370000D01*
X129278096Y-102465238D01*
X129325715Y-102560476D01*
X129373334Y-102750952D01*
X129373334Y-102893810D01*
X129325715Y-103084286D01*
X129278096Y-103179524D01*
X129182858Y-103274762D01*
X129040000Y-103322381D01*
X128801905Y-103322381D01*
X130230477Y-102655714D02*
X130230477Y-103322381D01*
X129992381Y-102274762D02*
X129754286Y-102989048D01*
X130373334Y-102989048D01*
X124571190Y-98512381D02*
X124761667Y-98512381D01*
X124856905Y-98560000D01*
X124952143Y-98655238D01*
X124999762Y-98845714D01*
X124999762Y-99179048D01*
X124952143Y-99369524D01*
X124856905Y-99464762D01*
X124761667Y-99512381D01*
X124571190Y-99512381D01*
X124475952Y-99464762D01*
X124380714Y-99369524D01*
X124333095Y-99179048D01*
X124333095Y-98845714D01*
X124380714Y-98655238D01*
X124475952Y-98560000D01*
X124571190Y-98512381D01*
X125285476Y-98512381D02*
X125618809Y-99512381D01*
X125952143Y-98512381D01*
X83597858Y-80462381D02*
X83026429Y-80462381D01*
X83312143Y-80462381D02*
X83312143Y-79462381D01*
X83216905Y-79605238D01*
X83121667Y-79700476D01*
X83026429Y-79748095D01*
X84026429Y-80367143D02*
X84074048Y-80414762D01*
X84026429Y-80462381D01*
X83978810Y-80414762D01*
X84026429Y-80367143D01*
X84026429Y-80462381D01*
X84978810Y-79462381D02*
X84502619Y-79462381D01*
X84455000Y-79938571D01*
X84502619Y-79890952D01*
X84597857Y-79843333D01*
X84835953Y-79843333D01*
X84931191Y-79890952D01*
X84978810Y-79938571D01*
X85026429Y-80033810D01*
X85026429Y-80271905D01*
X84978810Y-80367143D01*
X84931191Y-80414762D01*
X84835953Y-80462381D01*
X84597857Y-80462381D01*
X84502619Y-80414762D01*
X84455000Y-80367143D01*
X85407381Y-80176667D02*
X85883572Y-80176667D01*
X85312143Y-80462381D02*
X85645476Y-79462381D01*
X85978810Y-80462381D01*
X58507381Y-84153333D02*
X59221667Y-84153333D01*
X59364524Y-84200953D01*
X59459762Y-84296191D01*
X59507381Y-84439048D01*
X59507381Y-84534286D01*
X59507381Y-83153333D02*
X59507381Y-83724762D01*
X59507381Y-83439048D02*
X58507381Y-83439048D01*
X58650238Y-83534286D01*
X58745476Y-83629524D01*
X58793095Y-83724762D01*
X58507381Y-72723333D02*
X59221667Y-72723333D01*
X59364524Y-72770953D01*
X59459762Y-72866191D01*
X59507381Y-73009048D01*
X59507381Y-73104286D01*
X58507381Y-72342381D02*
X58507381Y-71723333D01*
X58888333Y-72056667D01*
X58888333Y-71913809D01*
X58935952Y-71818571D01*
X58983571Y-71770952D01*
X59078810Y-71723333D01*
X59316905Y-71723333D01*
X59412143Y-71770952D01*
X59459762Y-71818571D01*
X59507381Y-71913809D01*
X59507381Y-72199524D01*
X59459762Y-72294762D01*
X59412143Y-72342381D01*
X130262381Y-72723333D02*
X130976667Y-72723333D01*
X131119524Y-72770953D01*
X131214762Y-72866191D01*
X131262381Y-73009048D01*
X131262381Y-73104286D01*
X130595714Y-71818571D02*
X131262381Y-71818571D01*
X130214762Y-72056667D02*
X130929048Y-72294762D01*
X130929048Y-71675714D01*
X98337619Y-102965238D02*
X98290000Y-103060476D01*
X98194762Y-103155714D01*
X98051905Y-103298571D01*
X98004286Y-103393810D01*
X98004286Y-103489048D01*
X98242381Y-103441429D02*
X98194762Y-103536667D01*
X98099524Y-103631905D01*
X97909048Y-103679524D01*
X97575714Y-103679524D01*
X97385238Y-103631905D01*
X97290000Y-103536667D01*
X97242381Y-103441429D01*
X97242381Y-103250952D01*
X97290000Y-103155714D01*
X97385238Y-103060476D01*
X97575714Y-103012857D01*
X97909048Y-103012857D01*
X98099524Y-103060476D01*
X98194762Y-103155714D01*
X98242381Y-103250952D01*
X98242381Y-103441429D01*
X98242381Y-102060476D02*
X98242381Y-102631905D01*
X98242381Y-102346191D02*
X97242381Y-102346191D01*
X97385238Y-102441429D01*
X97480476Y-102536667D01*
X97528095Y-102631905D01*
X98337619Y-97885238D02*
X98290000Y-97980476D01*
X98194762Y-98075714D01*
X98051905Y-98218571D01*
X98004286Y-98313810D01*
X98004286Y-98409048D01*
X98242381Y-98361429D02*
X98194762Y-98456667D01*
X98099524Y-98551905D01*
X97909048Y-98599524D01*
X97575714Y-98599524D01*
X97385238Y-98551905D01*
X97290000Y-98456667D01*
X97242381Y-98361429D01*
X97242381Y-98170952D01*
X97290000Y-98075714D01*
X97385238Y-97980476D01*
X97575714Y-97932857D01*
X97909048Y-97932857D01*
X98099524Y-97980476D01*
X98194762Y-98075714D01*
X98242381Y-98170952D01*
X98242381Y-98361429D01*
X97337619Y-97551905D02*
X97290000Y-97504286D01*
X97242381Y-97409048D01*
X97242381Y-97170952D01*
X97290000Y-97075714D01*
X97337619Y-97028095D01*
X97432857Y-96980476D01*
X97528095Y-96980476D01*
X97670952Y-97028095D01*
X98242381Y-97599524D01*
X98242381Y-96980476D01*
X72223334Y-104592381D02*
X71890000Y-104116190D01*
X71651905Y-104592381D02*
X71651905Y-103592381D01*
X72032858Y-103592381D01*
X72128096Y-103640000D01*
X72175715Y-103687619D01*
X72223334Y-103782857D01*
X72223334Y-103925714D01*
X72175715Y-104020952D01*
X72128096Y-104068571D01*
X72032858Y-104116190D01*
X71651905Y-104116190D01*
X73175715Y-104592381D02*
X72604286Y-104592381D01*
X72890000Y-104592381D02*
X72890000Y-103592381D01*
X72794762Y-103735238D01*
X72699524Y-103830476D01*
X72604286Y-103878095D01*
X74803096Y-103925714D02*
X74803096Y-104592381D01*
X74565000Y-103544762D02*
X74326905Y-104259048D01*
X74945953Y-104259048D01*
X75231667Y-103592381D02*
X75898334Y-103592381D01*
X75469762Y-104592381D01*
X76469762Y-103592381D02*
X76565001Y-103592381D01*
X76660239Y-103640000D01*
X76707858Y-103687619D01*
X76755477Y-103782857D01*
X76803096Y-103973333D01*
X76803096Y-104211429D01*
X76755477Y-104401905D01*
X76707858Y-104497143D01*
X76660239Y-104544762D01*
X76565001Y-104592381D01*
X76469762Y-104592381D01*
X76374524Y-104544762D01*
X76326905Y-104497143D01*
X76279286Y-104401905D01*
X76231667Y-104211429D01*
X76231667Y-103973333D01*
X76279286Y-103782857D01*
X76326905Y-103687619D01*
X76374524Y-103640000D01*
X76469762Y-103592381D01*
X87463334Y-98877381D02*
X87130000Y-98401190D01*
X86891905Y-98877381D02*
X86891905Y-97877381D01*
X87272858Y-97877381D01*
X87368096Y-97925000D01*
X87415715Y-97972619D01*
X87463334Y-98067857D01*
X87463334Y-98210714D01*
X87415715Y-98305952D01*
X87368096Y-98353571D01*
X87272858Y-98401190D01*
X86891905Y-98401190D01*
X87844286Y-97972619D02*
X87891905Y-97925000D01*
X87987143Y-97877381D01*
X88225239Y-97877381D01*
X88320477Y-97925000D01*
X88368096Y-97972619D01*
X88415715Y-98067857D01*
X88415715Y-98163095D01*
X88368096Y-98305952D01*
X87796667Y-98877381D01*
X88415715Y-98877381D01*
X90043096Y-98210714D02*
X90043096Y-98877381D01*
X89805000Y-97829762D02*
X89566905Y-98544048D01*
X90185953Y-98544048D01*
X90471667Y-97877381D02*
X91138334Y-97877381D01*
X90709762Y-98877381D01*
X91709762Y-97877381D02*
X91805001Y-97877381D01*
X91900239Y-97925000D01*
X91947858Y-97972619D01*
X91995477Y-98067857D01*
X92043096Y-98258333D01*
X92043096Y-98496429D01*
X91995477Y-98686905D01*
X91947858Y-98782143D01*
X91900239Y-98829762D01*
X91805001Y-98877381D01*
X91709762Y-98877381D01*
X91614524Y-98829762D01*
X91566905Y-98782143D01*
X91519286Y-98686905D01*
X91471667Y-98496429D01*
X91471667Y-98258333D01*
X91519286Y-98067857D01*
X91566905Y-97972619D01*
X91614524Y-97925000D01*
X91709762Y-97877381D01*
X72223334Y-98877381D02*
X71890000Y-98401190D01*
X71651905Y-98877381D02*
X71651905Y-97877381D01*
X72032858Y-97877381D01*
X72128096Y-97925000D01*
X72175715Y-97972619D01*
X72223334Y-98067857D01*
X72223334Y-98210714D01*
X72175715Y-98305952D01*
X72128096Y-98353571D01*
X72032858Y-98401190D01*
X71651905Y-98401190D01*
X72556667Y-97877381D02*
X73175715Y-97877381D01*
X72842381Y-98258333D01*
X72985239Y-98258333D01*
X73080477Y-98305952D01*
X73128096Y-98353571D01*
X73175715Y-98448810D01*
X73175715Y-98686905D01*
X73128096Y-98782143D01*
X73080477Y-98829762D01*
X72985239Y-98877381D01*
X72699524Y-98877381D01*
X72604286Y-98829762D01*
X72556667Y-98782143D01*
X74398333Y-97972619D02*
X74445952Y-97925000D01*
X74541190Y-97877381D01*
X74779286Y-97877381D01*
X74874524Y-97925000D01*
X74922143Y-97972619D01*
X74969762Y-98067857D01*
X74969762Y-98163095D01*
X74922143Y-98305952D01*
X74350714Y-98877381D01*
X74969762Y-98877381D01*
X75398333Y-98877381D02*
X75398333Y-97877381D01*
X75493571Y-98496429D02*
X75779286Y-98877381D01*
X75779286Y-98210714D02*
X75398333Y-98591667D01*
X76160238Y-97972619D02*
X76207857Y-97925000D01*
X76303095Y-97877381D01*
X76541191Y-97877381D01*
X76636429Y-97925000D01*
X76684048Y-97972619D01*
X76731667Y-98067857D01*
X76731667Y-98163095D01*
X76684048Y-98305952D01*
X76112619Y-98877381D01*
X76731667Y-98877381D01*
X112228334Y-100782381D02*
X111895000Y-100306190D01*
X111656905Y-100782381D02*
X111656905Y-99782381D01*
X112037858Y-99782381D01*
X112133096Y-99830000D01*
X112180715Y-99877619D01*
X112228334Y-99972857D01*
X112228334Y-100115714D01*
X112180715Y-100210952D01*
X112133096Y-100258571D01*
X112037858Y-100306190D01*
X111656905Y-100306190D01*
X113085477Y-100115714D02*
X113085477Y-100782381D01*
X112847381Y-99734762D02*
X112609286Y-100449048D01*
X113228334Y-100449048D01*
X114808096Y-100115714D02*
X114808096Y-100782381D01*
X114570000Y-99734762D02*
X114331905Y-100449048D01*
X114950953Y-100449048D01*
X115236667Y-99782381D02*
X115903334Y-99782381D01*
X115474762Y-100782381D01*
X116474762Y-99782381D02*
X116570001Y-99782381D01*
X116665239Y-99830000D01*
X116712858Y-99877619D01*
X116760477Y-99972857D01*
X116808096Y-100163333D01*
X116808096Y-100401429D01*
X116760477Y-100591905D01*
X116712858Y-100687143D01*
X116665239Y-100734762D01*
X116570001Y-100782381D01*
X116474762Y-100782381D01*
X116379524Y-100734762D01*
X116331905Y-100687143D01*
X116284286Y-100591905D01*
X116236667Y-100401429D01*
X116236667Y-100163333D01*
X116284286Y-99972857D01*
X116331905Y-99877619D01*
X116379524Y-99830000D01*
X116474762Y-99782381D01*
X112228334Y-104592381D02*
X111895000Y-104116190D01*
X111656905Y-104592381D02*
X111656905Y-103592381D01*
X112037858Y-103592381D01*
X112133096Y-103640000D01*
X112180715Y-103687619D01*
X112228334Y-103782857D01*
X112228334Y-103925714D01*
X112180715Y-104020952D01*
X112133096Y-104068571D01*
X112037858Y-104116190D01*
X111656905Y-104116190D01*
X113133096Y-103592381D02*
X112656905Y-103592381D01*
X112609286Y-104068571D01*
X112656905Y-104020952D01*
X112752143Y-103973333D01*
X112990239Y-103973333D01*
X113085477Y-104020952D01*
X113133096Y-104068571D01*
X113180715Y-104163810D01*
X113180715Y-104401905D01*
X113133096Y-104497143D01*
X113085477Y-104544762D01*
X112990239Y-104592381D01*
X112752143Y-104592381D01*
X112656905Y-104544762D01*
X112609286Y-104497143D01*
X114808096Y-103925714D02*
X114808096Y-104592381D01*
X114570000Y-103544762D02*
X114331905Y-104259048D01*
X114950953Y-104259048D01*
X115236667Y-103592381D02*
X115903334Y-103592381D01*
X115474762Y-104592381D01*
X116474762Y-103592381D02*
X116570001Y-103592381D01*
X116665239Y-103640000D01*
X116712858Y-103687619D01*
X116760477Y-103782857D01*
X116808096Y-103973333D01*
X116808096Y-104211429D01*
X116760477Y-104401905D01*
X116712858Y-104497143D01*
X116665239Y-104544762D01*
X116570001Y-104592381D01*
X116474762Y-104592381D01*
X116379524Y-104544762D01*
X116331905Y-104497143D01*
X116284286Y-104401905D01*
X116236667Y-104211429D01*
X116236667Y-103973333D01*
X116284286Y-103782857D01*
X116331905Y-103687619D01*
X116379524Y-103640000D01*
X116474762Y-103592381D01*
X88796905Y-104592381D02*
X88796905Y-103592381D01*
X89035000Y-103592381D01*
X89177858Y-103640000D01*
X89273096Y-103735238D01*
X89320715Y-103830476D01*
X89368334Y-104020952D01*
X89368334Y-104163810D01*
X89320715Y-104354286D01*
X89273096Y-104449524D01*
X89177858Y-104544762D01*
X89035000Y-104592381D01*
X88796905Y-104592381D01*
X90320715Y-104592381D02*
X89749286Y-104592381D01*
X90035000Y-104592381D02*
X90035000Y-103592381D01*
X89939762Y-103735238D01*
X89844524Y-103830476D01*
X89749286Y-103878095D01*
X88630239Y-102020714D02*
X88630239Y-102687381D01*
X88392143Y-101639762D02*
X88154048Y-102354048D01*
X88773096Y-102354048D01*
X89154048Y-102592143D02*
X89201667Y-102639762D01*
X89154048Y-102687381D01*
X89106429Y-102639762D01*
X89154048Y-102592143D01*
X89154048Y-102687381D01*
X89535000Y-101687381D02*
X90201667Y-101687381D01*
X89773095Y-102687381D01*
X90487381Y-102020714D02*
X90725476Y-102687381D01*
X90963572Y-102020714D01*
M02*
