M48
;DRILL file {KiCad 4.0.7} date 09/02/18 19:49:25
;FORMAT={2:4/ absolute / inch / suppress leading zeros}
FMAT,2
INCH,TZ
T1C0.024
T2C0.031
T3C0.035
T4C0.039
T5C0.051
T6C0.059
T7C0.060
%
G90
G05
M72
T1
X39500Y-38500
X39500Y-40500
X40000Y-38000
X40000Y-41000
X40500Y-38500
X40500Y-40500
T2
X27250Y-38750
X27250Y-41000
X31250Y-38750
X31250Y-41000
X33250Y-36750
X33250Y-38750
X33250Y-41000
X37250Y-36750
X37250Y-38750
X37250Y-41000
X43000Y-39500
X43000Y-41000
X47000Y-39500
X47000Y-41000
T3
X48750Y-37250
X48750Y-40500
X49750Y-37250
X49750Y-40500
T4
X40018Y-31657
X40018Y-36382
T5
X39250Y-34000
X44821Y-36382
X44841Y-31638
T6
X28839Y-33000
X37500Y-33000
T7
X26250Y-27500
X26250Y-29500
X26250Y-32000
X26250Y-34000
X48500Y-27500
X48500Y-29500
X48500Y-32000
X48500Y-34000
T0
M30
