G04 #@! TF.FileFunction,Soldermask,Bot*
%FSLAX46Y46*%
G04 Gerber Fmt 4.6, Leading zero omitted, Abs format (unit mm)*
G04 Created by KiCad (PCBNEW 4.0.7) date 01/25/20 17:52:31*
%MOMM*%
%LPD*%
G01*
G04 APERTURE LIST*
%ADD10C,0.100000*%
%ADD11R,2.000000X2.000000*%
%ADD12O,2.000000X2.000000*%
%ADD13R,2.200000X2.200000*%
%ADD14C,2.200000*%
%ADD15O,2.900000X4.400000*%
%ADD16C,2.900000*%
%ADD17C,3.400000*%
%ADD18C,2.000000*%
%ADD19C,1.920000*%
%ADD20R,1.920000X1.920000*%
%ADD21R,2.400000X2.400000*%
%ADD22O,2.400000X2.400000*%
%ADD23C,2.400000*%
%ADD24O,4.400000X2.900000*%
%ADD25O,5.400000X3.400000*%
%ADD26O,2.400000X1.924000*%
%ADD27O,1.924000X2.400000*%
G04 APERTURE END LIST*
D10*
D11*
X107950000Y-93345000D03*
D12*
X118110000Y-93345000D03*
D13*
X123190000Y-101600000D03*
D14*
X123190000Y-99060000D03*
D13*
X123190000Y-93345000D03*
D14*
X123190000Y-90805000D03*
D15*
X90170000Y-80870000D03*
X90170000Y-102870000D03*
D16*
X79965000Y-91105000D03*
D17*
X67765000Y-91105000D03*
X67715000Y-103155000D03*
D16*
X79965000Y-103105000D03*
D17*
X81915000Y-97155000D03*
D18*
X97790000Y-102870000D03*
D12*
X97790000Y-92710000D03*
D18*
X107950000Y-97790000D03*
D12*
X118110000Y-97790000D03*
D18*
X101600000Y-102870000D03*
D12*
X101600000Y-92710000D03*
D18*
X107950000Y-100965000D03*
D12*
X118110000Y-100965000D03*
D18*
X107950000Y-104140000D03*
D12*
X118110000Y-104140000D03*
D19*
X99695000Y-83820000D03*
X102235000Y-83820000D03*
D20*
X97155000Y-83820000D03*
D19*
X99695000Y-88265000D03*
X97155000Y-88265000D03*
D20*
X102235000Y-88265000D03*
D21*
X107950000Y-88265000D03*
D22*
X118110000Y-88265000D03*
D21*
X100330000Y-78105000D03*
D23*
X100330000Y-70505000D03*
D24*
X109855000Y-72390000D03*
X109855000Y-76200000D03*
X109855000Y-80010000D03*
X109855000Y-83820000D03*
D25*
X116205000Y-74295000D03*
X116205000Y-81915000D03*
X122555000Y-74295000D03*
X122555000Y-81915000D03*
D24*
X81280000Y-80010000D03*
X81280000Y-74930000D03*
D26*
X77430000Y-72470000D03*
X77430000Y-82470000D03*
X74930000Y-69970000D03*
X74930000Y-84970000D03*
D27*
X64930000Y-72470000D03*
X64930000Y-82470000D03*
D26*
X74930000Y-77470000D03*
X79930000Y-84970000D03*
X79930000Y-69970000D03*
M02*
