G04 #@! TF.FileFunction,Copper,L1,Top,Signal*
%FSLAX46Y46*%
G04 Gerber Fmt 4.6, Leading zero omitted, Abs format (unit mm)*
G04 Created by KiCad (PCBNEW 4.0.7) date 01/25/20 17:52:31*
%MOMM*%
%LPD*%
G01*
G04 APERTURE LIST*
%ADD10C,0.100000*%
%ADD11R,1.600000X1.600000*%
%ADD12O,1.600000X1.600000*%
%ADD13R,1.800000X1.800000*%
%ADD14C,1.800000*%
%ADD15O,2.500000X4.000000*%
%ADD16C,2.500000*%
%ADD17C,3.000000*%
%ADD18C,1.600000*%
%ADD19C,1.520000*%
%ADD20R,1.520000X1.520000*%
%ADD21R,2.000000X2.000000*%
%ADD22O,2.000000X2.000000*%
%ADD23C,2.000000*%
%ADD24O,4.000000X2.500000*%
%ADD25O,5.000000X3.000000*%
%ADD26O,2.000000X1.524000*%
%ADD27O,1.524000X2.000000*%
%ADD28C,0.600000*%
%ADD29C,0.250000*%
%ADD30C,1.000000*%
G04 APERTURE END LIST*
D10*
D11*
X107950000Y-93345000D03*
D12*
X118110000Y-93345000D03*
D13*
X123190000Y-101600000D03*
D14*
X123190000Y-99060000D03*
D13*
X123190000Y-93345000D03*
D14*
X123190000Y-90805000D03*
D15*
X90170000Y-80870000D03*
X90170000Y-102870000D03*
D16*
X79965000Y-91105000D03*
D17*
X67765000Y-91105000D03*
X67715000Y-103155000D03*
D16*
X79965000Y-103105000D03*
D17*
X81915000Y-97155000D03*
D18*
X97790000Y-102870000D03*
D12*
X97790000Y-92710000D03*
D18*
X107950000Y-97790000D03*
D12*
X118110000Y-97790000D03*
D18*
X101600000Y-102870000D03*
D12*
X101600000Y-92710000D03*
D18*
X107950000Y-100965000D03*
D12*
X118110000Y-100965000D03*
D18*
X107950000Y-104140000D03*
D12*
X118110000Y-104140000D03*
D19*
X99695000Y-83820000D03*
X102235000Y-83820000D03*
D20*
X97155000Y-83820000D03*
D19*
X99695000Y-88265000D03*
X97155000Y-88265000D03*
D20*
X102235000Y-88265000D03*
D21*
X107950000Y-88265000D03*
D22*
X118110000Y-88265000D03*
D21*
X100330000Y-78105000D03*
D23*
X100330000Y-70505000D03*
D24*
X109855000Y-72390000D03*
X109855000Y-76200000D03*
X109855000Y-80010000D03*
X109855000Y-83820000D03*
D25*
X116205000Y-74295000D03*
X116205000Y-81915000D03*
X122555000Y-74295000D03*
X122555000Y-81915000D03*
D24*
X81280000Y-80010000D03*
X81280000Y-74930000D03*
D26*
X77430000Y-72470000D03*
X77430000Y-82470000D03*
X74930000Y-69970000D03*
X74930000Y-84970000D03*
D27*
X64930000Y-72470000D03*
X64930000Y-82470000D03*
D26*
X74930000Y-77470000D03*
X79930000Y-84970000D03*
X79930000Y-69970000D03*
D28*
X106680000Y-90805000D03*
X102870000Y-90805000D03*
X100330000Y-99695000D03*
X102870000Y-99695000D03*
X92075000Y-93980000D03*
X93980000Y-90170000D03*
X99060000Y-100965000D03*
X102235000Y-101600000D03*
D29*
X97790000Y-92710000D02*
X99060000Y-93980000D01*
X106045000Y-88265000D02*
X107950000Y-88265000D01*
X105410000Y-88900000D02*
X106045000Y-88265000D01*
X105410000Y-92075000D02*
X105410000Y-88900000D01*
X102870000Y-94615000D02*
X105410000Y-92075000D01*
X99695000Y-94615000D02*
X102870000Y-94615000D01*
X99060000Y-93980000D02*
X99695000Y-94615000D01*
X118110000Y-88265000D02*
X118110000Y-88900000D01*
X118110000Y-88900000D02*
X118745000Y-89535000D01*
X119380000Y-89535000D02*
X120015000Y-90170000D01*
X118745000Y-89535000D02*
X119380000Y-89535000D01*
X99695000Y-83820000D02*
X99695000Y-82550000D01*
X118110000Y-86995000D02*
X118110000Y-88265000D01*
X117475000Y-86360000D02*
X118110000Y-86995000D01*
X106045000Y-86360000D02*
X117475000Y-86360000D01*
X105410000Y-85725000D02*
X106045000Y-86360000D01*
X105410000Y-83185000D02*
X105410000Y-85725000D01*
X103505000Y-81280000D02*
X105410000Y-83185000D01*
X100965000Y-81280000D02*
X103505000Y-81280000D01*
X99695000Y-82550000D02*
X100965000Y-81280000D01*
X116840000Y-95885000D02*
X115570000Y-95885000D01*
X114935000Y-97155000D02*
X114300000Y-97790000D01*
X114935000Y-96520000D02*
X114935000Y-97155000D01*
X115570000Y-95885000D02*
X114935000Y-96520000D01*
X120015000Y-94615000D02*
X120015000Y-95250000D01*
X119380000Y-95885000D02*
X118745000Y-95885000D01*
X120015000Y-95250000D02*
X119380000Y-95885000D01*
X107950000Y-97790000D02*
X114300000Y-97790000D01*
X120015000Y-94615000D02*
X120015000Y-90170000D01*
X116840000Y-95885000D02*
X118745000Y-95885000D01*
X101600000Y-102870000D02*
X101600000Y-95885000D01*
X101600000Y-95885000D02*
X102235000Y-95250000D01*
X97790000Y-102870000D02*
X101600000Y-102870000D01*
X102235000Y-95250000D02*
X106045000Y-95250000D01*
X107950000Y-93345000D02*
X106045000Y-95250000D01*
X97790000Y-102870000D02*
X90170000Y-102870000D01*
D30*
X79965000Y-103105000D02*
X79965000Y-99105000D01*
X79965000Y-99105000D02*
X81915000Y-97155000D01*
X90170000Y-102870000D02*
X80200000Y-102870000D01*
D29*
X80200000Y-102870000D02*
X79965000Y-103105000D01*
X97155000Y-88265000D02*
X97155000Y-90805000D01*
X80265000Y-90805000D02*
X97155000Y-90805000D01*
X97155000Y-90805000D02*
X102870000Y-90805000D01*
X106680000Y-90805000D02*
X116840000Y-90805000D01*
X116840000Y-90805000D02*
X118110000Y-92075000D01*
X118110000Y-92075000D02*
X118110000Y-93345000D01*
X80265000Y-90805000D02*
X79965000Y-91105000D01*
X118110000Y-100965000D02*
X119380000Y-100965000D01*
X121285000Y-99060000D02*
X123190000Y-99060000D01*
X119380000Y-100965000D02*
X121285000Y-99060000D01*
X123190000Y-90805000D02*
X121920000Y-90805000D01*
X116205000Y-102235000D02*
X118110000Y-104140000D01*
X116205000Y-100330000D02*
X116205000Y-102235000D01*
X117475000Y-99060000D02*
X116205000Y-100330000D01*
X119380000Y-99060000D02*
X117475000Y-99060000D01*
X121285000Y-97155000D02*
X119380000Y-99060000D01*
X121285000Y-91440000D02*
X121285000Y-97155000D01*
X121920000Y-90805000D02*
X121285000Y-91440000D01*
X99695000Y-88265000D02*
X99695000Y-86360000D01*
X99695000Y-86360000D02*
X102235000Y-83820000D01*
X101600000Y-92710000D02*
X102870000Y-92710000D01*
X102870000Y-92710000D02*
X104140000Y-91440000D01*
X104140000Y-91440000D02*
X104140000Y-85725000D01*
X104140000Y-85725000D02*
X102235000Y-83820000D01*
D30*
X81280000Y-72470000D02*
X81280000Y-74930000D01*
X77430000Y-72470000D02*
X81280000Y-72470000D01*
X81280000Y-72470000D02*
X87710000Y-72470000D01*
X90170000Y-74930000D02*
X90170000Y-80870000D01*
X87710000Y-72470000D02*
X90170000Y-74930000D01*
X109855000Y-80010000D02*
X107315000Y-80010000D01*
X102235000Y-74930000D02*
X93980000Y-74930000D01*
X107315000Y-80010000D02*
X102235000Y-74930000D01*
D29*
X93345000Y-93345000D02*
X99695000Y-99695000D01*
X99695000Y-99695000D02*
X100330000Y-99695000D01*
X104140000Y-100965000D02*
X102870000Y-99695000D01*
X68580000Y-93345000D02*
X92710000Y-93345000D01*
X107950000Y-100965000D02*
X104140000Y-100965000D01*
X68580000Y-93345000D02*
X67765000Y-92530000D01*
X93345000Y-93345000D02*
X92710000Y-93345000D01*
D30*
X93980000Y-74930000D02*
X92710000Y-76200000D01*
X68580000Y-87630000D02*
X91440000Y-87630000D01*
X91440000Y-87630000D02*
X92710000Y-86360000D01*
X67765000Y-88445000D02*
X67765000Y-91105000D01*
X67765000Y-88445000D02*
X68580000Y-87630000D01*
X92710000Y-76200000D02*
X92710000Y-86360000D01*
D29*
X67765000Y-91105000D02*
X67765000Y-92530000D01*
D30*
X79930000Y-84970000D02*
X83940000Y-84970000D01*
X105410000Y-67945000D02*
X109855000Y-72390000D01*
X69850000Y-67945000D02*
X94615000Y-67945000D01*
X69850000Y-67945000D02*
X68580000Y-69215000D01*
X68580000Y-69215000D02*
X68580000Y-71120000D01*
X68580000Y-71120000D02*
X68580000Y-73660000D01*
X94615000Y-67945000D02*
X105410000Y-67945000D01*
X85090000Y-81915000D02*
X85090000Y-78740000D01*
X85090000Y-78740000D02*
X83820000Y-77470000D01*
X83820000Y-77470000D02*
X78740000Y-77470000D01*
X78740000Y-77470000D02*
X76200000Y-74930000D01*
X76200000Y-74930000D02*
X69850000Y-74930000D01*
X69850000Y-74930000D02*
X68580000Y-73660000D01*
X85090000Y-83820000D02*
X85090000Y-81915000D01*
X83940000Y-84970000D02*
X85090000Y-83820000D01*
X98425000Y-73025000D02*
X103505000Y-73025000D01*
X103505000Y-73025000D02*
X104775000Y-74295000D01*
X93980000Y-69970000D02*
X95370000Y-69970000D01*
X95370000Y-69970000D02*
X98425000Y-73025000D01*
X92710000Y-69970000D02*
X92830000Y-69970000D01*
X79930000Y-69970000D02*
X92710000Y-69970000D01*
X92830000Y-69970000D02*
X93980000Y-69970000D01*
X106680000Y-76200000D02*
X109855000Y-76200000D01*
X104775000Y-74295000D02*
X106680000Y-76200000D01*
D29*
X67715000Y-103155000D02*
X76890000Y-93980000D01*
X95250000Y-77470000D02*
X93980000Y-78740000D01*
X93980000Y-78740000D02*
X93980000Y-87630000D01*
X99695000Y-77470000D02*
X95250000Y-77470000D01*
X93980000Y-90170000D02*
X93980000Y-87630000D01*
X99060000Y-100965000D02*
X92075000Y-93980000D01*
X92075000Y-93980000D02*
X76890000Y-93980000D01*
X106045000Y-104140000D02*
X107950000Y-104140000D01*
X104775000Y-104140000D02*
X106045000Y-104140000D01*
X102235000Y-101600000D02*
X104775000Y-104140000D01*
M02*
